<svg width="1683" height="595" viewBox="0 0 1683 595" fill="none" xmlns="http://www.w3.org/2000/svg">
<mask id="mask0" mask-type="alpha" maskUnits="userSpaceOnUse" x="-13" y="-201" width="1696" height="1035">
<rect x="-13" y="-200.324" width="1696" height="1033.49" fill="#C4C4C4"/>
</mask>
<g mask="url(#mask0)">
<g style="mix-blend-mode:overlay">
<path d="M1891.51 -137.766H1703.61L1755.99 -137.766C1720.24 -153.221 1670.69 -165.457 1603.52 -172.51C1444.45 -189.213 1314.77 -79.0624 1162.95 -5.04434C1029.68 31.5801 675.323 171.238 488.403 27.8999C231.498 -225.385 9.82329 -78.4276 -86.4286 -44.5776L-143.426 674.86C-143.426 741.507 35.6576 792.493 91.3072 802.091C249.775 829.422 474.185 708.499 674.392 642.922C943.029 554.931 1168.21 523.445 1373.42 632.888C1703.61 824.354 1688.86 685.814 1755.99 674.86L1703.61 929.333H1891.51V-137.766Z" fill="url(#paint0_linear)"/>
<path d="M1891.51 -137.767H1703.53V-85.0526C1667.77 -100.507 1618.19 -112.743 1550.99 -119.797C1391.86 -136.5 1235.71 -60.4058 1083.82 13.6123C878.022 113.904 680.041 210.385 493.04 67.0471C271.09 -103.079 83.2938 -97.4091 -13 -63.5591V715.164C19.6357 725.806 62.6058 735.987 118.28 745.585C276.817 772.915 473.566 708.499 673.86 642.922C942.615 554.93 1217.75 464.85 1415.52 591.52C1545.7 674.903 1636.37 691.443 1703.53 680.489V929.332H1891.51V-137.767Z" fill="url(#paint1_linear)"/>
<g style="mix-blend-mode:overlay">
<path d="M1891.51 -137.767H1703.53V-85.0526C1667.77 -100.507 1618.19 -112.743 1550.99 -119.797C1391.86 -136.5 1235.71 -60.4058 1083.82 13.6123C878.022 113.904 680.041 210.385 493.04 67.0471C271.09 -103.079 83.2938 -97.4091 -13 -63.5591V715.164C19.6357 725.806 62.6058 735.987 118.28 745.585C276.817 772.915 473.566 708.499 673.86 642.922C942.615 554.93 1217.75 464.85 1415.52 591.52C1545.7 674.903 1636.37 691.443 1703.53 680.489V929.332H1891.51V-137.767Z" fill="url(#paint2_linear)"/>
</g>
</g>
</g>
<defs>
<linearGradient id="paint0_linear" x1="939.671" y1="-137.766" x2="939.671" y2="929.333" gradientUnits="userSpaceOnUse">
<stop stop-color="white"/>
<stop offset="1" stop-color="white"/>
</linearGradient>
<linearGradient id="paint1_linear" x1="939.256" y1="-137.767" x2="939.256" y2="929.332" gradientUnits="userSpaceOnUse">
<stop stop-color="#6241BB"/>
<stop offset="1" stop-color="#0066B1"/>
</linearGradient>
<linearGradient id="paint2_linear" x1="939.256" y1="-137.767" x2="939.256" y2="929.332" gradientUnits="userSpaceOnUse">
<stop stop-color="#6241BB"/>
<stop offset="1" stop-color="#0066B1"/>
</linearGradient>
</defs>
</svg>
