<svg width="34" height="34" viewBox="0 0 34 34" fill="none" xmlns="http://www.w3.org/2000/svg">
<path d="M17 0.234314C26.2299 0.234314 33.7511 7.73877 33.7511 16.9853C33.7511 26.2151 26.2299 33.7364 17 33.7364C7.75348 33.7364 0.249023 26.2151 0.249023 16.9853C0.249023 7.73877 7.75348 0.234314 17 0.234314ZM12.0752 13.6854C11.5895 13.1829 10.7854 13.1829 10.2996 13.6686C9.7971 14.1712 9.7971 14.9585 10.2996 15.4442L16.1122 21.2903C16.3468 21.5249 16.665 21.6589 17 21.6589C17.3351 21.6589 17.6533 21.5249 17.8878 21.2903L23.7004 15.4442C23.9517 15.2097 24.069 14.8915 24.069 14.5732C24.069 14.2382 23.9517 13.9199 23.7004 13.6686C23.1979 13.1829 22.4106 13.1829 21.9248 13.6854L17 18.6269L12.0752 13.6854Z" fill="#006FBC"/>
</svg>
