<svg width="316" height="7" viewBox="0 0 316 7" fill="none" xmlns="http://www.w3.org/2000/svg">
<line x1="118.311" y1="3.37146" x2="4.94019" y2="3.37147" stroke="#525252" stroke-width="0.5"/>
<line x1="311.067" y1="3.37146" x2="197.697" y2="3.37147" stroke="#525252" stroke-width="0.5"/>
<path d="M4.94018 6.2415L4.94018 0.438285C4.94 0.37953 4.92379 0.321938 4.89331 0.271708C4.86283 0.221478 4.81923 0.180512 4.7672 0.15322C4.71516 0.125927 4.65667 0.113342 4.59802 0.116818C4.53937 0.120295 4.48278 0.139701 4.43433 0.172949L0.243123 3.07456C0.0693493 3.19481 0.0693493 3.48433 0.243123 3.60491L4.43433 6.50651C4.48268 6.5401 4.5393 6.5598 4.59805 6.56346C4.6568 6.56713 4.71543 6.55462 4.76757 6.5273C4.81971 6.49999 4.86337 6.4589 4.8938 6.40852C4.92423 6.35813 4.94027 6.30036 4.94018 6.2415Z" fill="#525252"/>
<path d="M311.067 0.438797L311.067 6.24201C311.068 6.30077 311.084 6.35836 311.114 6.40859C311.145 6.45882 311.188 6.49979 311.24 6.52708C311.292 6.55437 311.351 6.56696 311.409 6.56348C311.468 6.56 311.525 6.5406 311.573 6.50735L315.764 3.60574C315.938 3.48549 315.938 3.19597 315.764 3.07539L311.573 0.173783C311.525 0.140197 311.468 0.120501 311.409 0.116836C311.351 0.11317 311.292 0.125676 311.24 0.152993C311.188 0.18031 311.144 0.221394 311.114 0.271781C311.083 0.322169 311.067 0.379933 311.067 0.438797Z" fill="#525252"/>
</svg>
