<svg width="125" height="73" viewBox="0 0 125 73" fill="none" xmlns="http://www.w3.org/2000/svg">
<path d="M8.95289 69.6615C5.24529 69.6615 3.80688 67.3551 3.80688 64.6271C3.80688 61.7503 5.62969 59.7787 8.95289 59.7787C11.4825 59.7787 12.5985 60.6715 12.5985 60.6715L11.9289 61.9363C11.9289 61.9363 11.0361 61.1303 8.95289 61.1303C6.77049 61.1303 5.38169 62.4447 5.38169 64.6271C5.38169 66.6731 6.47289 68.3099 8.97769 68.3099C11.1477 68.3099 12.6729 67.2063 12.6729 67.2063L13.1317 68.4835C13.1317 68.4835 11.6561 69.6615 8.95289 69.6615Z" fill="#F5F5F5"/>
<path d="M20.9684 69.6608C17.4344 69.6608 15.8596 67.3792 15.8596 64.6884C15.8596 61.7868 17.7692 59.7656 20.9684 59.7656C24.1676 59.7656 26.0772 61.7744 26.0772 64.6884C26.0772 67.3792 24.4776 69.6608 20.9684 69.6608ZM20.9684 61.1296C18.7488 61.1296 17.422 62.4936 17.422 64.6884C17.422 66.66 18.476 68.2968 20.9684 68.2968C23.4608 68.2968 24.5272 66.6476 24.5272 64.6884C24.5272 62.4936 23.188 61.1296 20.9684 61.1296Z" fill="#F5F5F5"/>
<path d="M37.8697 63.498L35.1789 69.4624H34.1869L31.4837 63.498V69.4624H29.9585V59.9516H31.3349L34.7201 67.1188L38.0309 59.9516H39.4073V69.4624H37.8697V63.498Z" fill="#F5F5F5"/>
<path d="M43.8589 59.9516H48.0625C50.2325 59.9516 51.1377 60.956 51.1377 62.3572C51.1377 63.7832 50.3317 64.366 49.4885 64.6016C51.0261 64.862 51.6089 65.606 51.6089 66.9328C51.6089 68.5324 50.2325 69.4624 48.2361 69.4624H43.8589C43.8589 69.4624 43.8589 59.9516 43.8589 59.9516ZM45.3717 64.0684H48.0129C48.8065 64.0684 49.5629 63.5848 49.5629 62.5556C49.5629 61.824 49.0297 61.2908 47.9757 61.2908H45.3841V64.0684H45.3717ZM45.3717 68.1108H48.1865C49.3769 68.1108 50.0589 67.6892 50.0589 66.7468C50.0589 65.7176 49.2529 65.2464 48.0501 65.2464H45.3717V68.1108Z" fill="#F5F5F5"/>
<path d="M59.9914 69.6608C56.4574 69.6608 54.8826 67.3792 54.8826 64.6884C54.8826 61.7868 56.7922 59.7656 59.9914 59.7656C63.1906 59.7656 65.1002 61.7744 65.1002 64.6884C65.1002 67.3792 63.5006 69.6608 59.9914 69.6608ZM59.9914 61.1296C57.7718 61.1296 56.445 62.4936 56.445 64.6884C56.445 66.66 57.499 68.2968 59.9914 68.2968C62.4838 68.2968 63.5502 66.6476 63.5502 64.6884C63.5502 62.4936 62.211 61.1296 59.9914 61.1296Z" fill="#F5F5F5"/>
<path d="M77.9714 61.1792C76.2974 61.1792 75.603 61.7372 75.603 62.4812C75.603 63.3988 76.5082 63.7708 78.1202 64.0436C80.687 64.4776 81.9394 65.0356 81.9394 66.8336C81.9394 68.4084 80.6746 69.6732 77.9218 69.6732C74.8218 69.6732 73.6934 68.334 73.6934 68.334L74.4126 67.1188C74.4126 67.1188 75.6402 68.3092 77.9218 68.3092C79.447 68.3092 80.3026 67.7884 80.3026 66.9576C80.3026 66.1144 79.8686 65.8416 77.8846 65.482C75.5534 65.0728 73.9662 64.5272 73.9662 62.6176C73.9538 61.1544 75.2062 59.7904 77.959 59.7904C80.439 59.7904 81.8774 60.77 81.8774 60.77L81.3318 62.0844C81.3318 62.072 80.1414 61.1792 77.9714 61.1792Z" fill="#F5F5F5"/>
<path d="M92.5041 65.4572H87.3458V69.4624H85.8206V59.9516H87.3458V64.0932H92.5041V59.9516H94.0293V69.4624H92.5041V65.4572Z" fill="#F5F5F5"/>
<path d="M103.032 69.6608C99.4976 69.6608 97.9229 67.3792 97.9229 64.6884C97.9229 61.7868 99.8324 59.7656 103.032 59.7656C106.218 59.7656 108.14 61.7744 108.14 64.6884C108.14 67.3792 106.541 69.6608 103.032 69.6608ZM103.032 61.1296C100.812 61.1296 99.4853 62.4936 99.4853 64.6884C99.4853 66.66 100.539 68.2968 103.032 68.2968C105.512 68.2968 106.59 66.6476 106.59 64.6884C106.59 62.4936 105.251 61.1296 103.032 61.1296Z" fill="#F5F5F5"/>
<path d="M114.402 61.2784H110.509V59.9516H119.846V61.2784H115.928V69.4624H114.402V61.2784Z" fill="#F5F5F5"/>
<path d="M124.025 72.4508H0.0249023V72.7236H124.025V72.4508Z" fill="#F5F5F5"/>
<path d="M124.025 55.0908H0.0249023V55.3636H124.025V55.0908Z" fill="#F5F5F5"/>
<path d="M78.6657 7.80959C80.9473 7.80959 83.1669 8.21879 85.3245 9.03719C87.4821 9.85559 89.6769 11.1204 91.9213 12.844L96.5961 6.37119C94.2773 4.53599 91.5741 3.09759 88.4741 2.05599C81.3813 -0.324808 72.5773 -0.461209 66.6005 4.59799C56.7673 12.906 55.4777 36.28 39.6801 36.28C32.1409 36.28 26.0401 30.1792 26.0401 22.64C26.0401 15.1008 32.1409 8.99999 39.6801 8.99999C44.0449 8.99999 47.9137 11.0584 50.4061 14.2328L55.9241 9.19839C52.0553 4.53599 46.2149 1.55999 39.6801 1.55999C28.0365 1.55999 18.6001 10.9964 18.6001 22.64C18.6001 34.2836 28.0365 43.72 39.6801 43.72C51.4849 43.72 57.7221 34.3952 62.7441 25.0208C66.4021 18.2256 69.2789 7.80959 78.6657 7.80959Z" fill="#F5F5F5"/>
<path d="M94.2898 22.4168C92.1942 20.4328 89.057 19.106 84.903 18.424L76.9918 17.1096C76.0742 16.9732 75.1442 16.7872 74.2638 16.4896C73.5694 16.2416 72.3418 15.8448 71.9202 15.2C70.3206 16.7004 68.7334 19.7136 67.9274 22.5036C69.5022 23.4088 71.4242 24.0412 73.6934 24.4256L82.0262 25.864C84.5062 26.2608 86.2794 26.8684 87.3334 27.662C88.3874 28.4556 88.9206 29.584 88.9206 31.0224C88.9206 32.622 88.1394 33.8992 86.577 34.854C85.0146 35.8088 82.9438 36.2924 80.3398 36.2924C77.8226 36.2924 75.4294 35.8088 73.1726 34.8292C70.9158 33.8496 68.5598 32.2996 66.1294 30.1792L61.157 36.4164C63.6742 38.698 66.5634 40.4712 69.8246 41.7484C73.0858 43.0256 76.3842 43.6704 79.7446 43.6704C85.1014 43.6704 89.3918 42.4552 92.6034 40.0124C95.815 37.5696 97.427 34.3208 97.427 30.2412C97.4394 26.9924 96.3854 24.3884 94.2898 22.4168Z" fill="#F5F5F5"/>
</svg>
