<svg width="186" height="186" viewBox="0 0 186 186" fill="none" xmlns="http://www.w3.org/2000/svg">
<path d="M39.9528 122.662C36.2452 122.662 34.8068 120.355 34.8068 117.627C34.8068 114.75 36.6296 112.779 39.9528 112.779C42.4824 112.779 43.5984 113.672 43.5984 113.672L42.9288 114.936C42.9288 114.936 42.036 114.13 39.9528 114.13C37.7704 114.13 36.3816 115.445 36.3816 117.627C36.3816 119.673 37.4728 121.31 39.9776 121.31C42.1476 121.31 43.6728 120.206 43.6728 120.206L44.1316 121.484C44.1316 121.484 42.656 122.662 39.9528 122.662Z" fill="#525252"/>
<path d="M51.9684 122.661C48.4344 122.661 46.8596 120.379 46.8596 117.688C46.8596 114.787 48.7692 112.766 51.9684 112.766C55.1676 112.766 57.0772 114.774 57.0772 117.688C57.0772 120.379 55.4776 122.661 51.9684 122.661ZM51.9684 114.13C49.7488 114.13 48.422 115.494 48.422 117.688C48.422 119.66 49.476 121.297 51.9684 121.297C54.4608 121.297 55.5272 119.648 55.5272 117.688C55.5272 115.494 54.188 114.13 51.9684 114.13Z" fill="#525252"/>
<path d="M68.8696 116.498L66.1788 122.462H65.1868L62.4836 116.498V122.462H60.9584V112.952H62.3348L65.72 120.119L69.0308 112.952H70.4072V122.462H68.8696V116.498Z" fill="#525252"/>
<path d="M74.8588 112.952H79.0624C81.2324 112.952 82.1376 113.956 82.1376 115.357C82.1376 116.783 81.3316 117.366 80.4884 117.602C82.026 117.862 82.6088 118.606 82.6088 119.933C82.6088 121.532 81.2324 122.462 79.236 122.462H74.8588C74.8588 122.462 74.8588 112.952 74.8588 112.952ZM76.3716 117.068H79.0128C79.8064 117.068 80.5628 116.585 80.5628 115.556C80.5628 114.824 80.0296 114.291 78.9756 114.291H76.384V117.068H76.3716ZM76.3716 121.111H79.1864C80.3768 121.111 81.0588 120.689 81.0588 119.747C81.0588 118.718 80.2528 118.246 79.05 118.246H76.3716V121.111Z" fill="#525252"/>
<path d="M90.9912 122.661C87.4572 122.661 85.8824 120.379 85.8824 117.688C85.8824 114.787 87.792 112.766 90.9912 112.766C94.1904 112.766 96.1 114.774 96.1 117.688C96.1 120.379 94.5004 122.661 90.9912 122.661ZM90.9912 114.13C88.7716 114.13 87.4448 115.494 87.4448 117.688C87.4448 119.66 88.4988 121.297 90.9912 121.297C93.4836 121.297 94.55 119.648 94.55 117.688C94.55 115.494 93.2108 114.13 90.9912 114.13Z" fill="#525252"/>
<path d="M108.971 114.179C107.297 114.179 106.603 114.737 106.603 115.481C106.603 116.399 107.508 116.771 109.12 117.044C111.687 117.478 112.939 118.036 112.939 119.834C112.939 121.409 111.674 122.673 108.922 122.673C105.822 122.673 104.693 121.334 104.693 121.334L105.412 120.119C105.412 120.119 106.64 121.309 108.922 121.309C110.447 121.309 111.302 120.789 111.302 119.958C111.302 119.115 110.868 118.842 108.884 118.482C106.553 118.073 104.966 117.527 104.966 115.618C104.954 114.155 106.206 112.791 108.959 112.791C111.439 112.791 112.877 113.77 112.877 113.77L112.332 115.085C112.332 115.072 111.141 114.179 108.971 114.179Z" fill="#525252"/>
<path d="M123.504 118.457H118.346V122.462H116.82V112.952H118.346V117.093H123.504V112.952H125.029V122.462H123.504V118.457Z" fill="#525252"/>
<path d="M134.032 122.661C130.498 122.661 128.923 120.379 128.923 117.688C128.923 114.787 130.832 112.766 134.032 112.766C137.218 112.766 139.14 114.774 139.14 117.688C139.14 120.379 137.541 122.661 134.032 122.661ZM134.032 114.13C131.812 114.13 130.485 115.494 130.485 117.688C130.485 119.66 131.539 121.297 134.032 121.297C136.512 121.297 137.59 119.648 137.59 117.688C137.59 115.494 136.251 114.13 134.032 114.13Z" fill="#525252"/>
<path d="M145.402 114.278H141.509V112.952H150.846V114.278H146.928V122.462H145.402V114.278Z" fill="#525252"/>
<path d="M155.025 125.451H31.0248V125.723H155.025V125.451Z" fill="#525252"/>
<path d="M155.025 108.091H31.0248V108.364H155.025V108.091Z" fill="#525252"/>
<path d="M109.666 60.8096C111.947 60.8096 114.167 61.2188 116.324 62.0372C118.482 62.8556 120.677 64.1204 122.921 65.844L127.596 59.3712C125.277 57.536 122.574 56.0976 119.474 55.056C112.381 52.6752 103.577 52.5388 97.6004 57.598C87.7672 65.906 86.4776 89.28 70.68 89.28C63.1408 89.28 57.04 83.1792 57.04 75.64C57.04 68.1008 63.1408 62 70.68 62C75.0448 62 78.9136 64.0584 81.406 67.2328L86.924 62.1984C83.0552 57.536 77.2148 54.56 70.68 54.56C59.0364 54.56 49.6 63.9964 49.6 75.64C49.6 87.2836 59.0364 96.72 70.68 96.72C82.4848 96.72 88.722 87.3952 93.744 78.0208C97.402 71.2256 100.279 60.8096 109.666 60.8096Z" fill="#525252"/>
<path d="M125.29 75.4168C123.194 73.4328 120.057 72.106 115.903 71.4239L107.992 70.1096C107.074 69.9732 106.144 69.7872 105.264 69.4896C104.569 69.2416 103.342 68.8448 102.92 68.2C101.32 69.7004 99.7332 72.7136 98.9272 75.5036C100.502 76.4088 102.424 77.0412 104.693 77.4256L113.026 78.864C115.506 79.2608 117.279 79.8684 118.333 80.662C119.387 81.4556 119.92 82.584 119.92 84.0224C119.92 85.622 119.139 86.8992 117.577 87.854C116.014 88.8088 113.944 89.2924 111.34 89.2924C108.822 89.2924 106.429 88.8088 104.172 87.8292C101.916 86.8496 99.5596 85.2996 97.1292 83.1792L92.1568 89.4164C94.674 91.698 97.5632 93.4712 100.824 94.7484C104.086 96.0256 107.384 96.6704 110.744 96.6704C116.101 96.6704 120.392 95.4552 123.603 93.0124C126.815 90.5696 128.427 87.3208 128.427 83.2412C128.439 79.9924 127.385 77.3884 125.29 75.4168Z" fill="#525252"/>
</svg>
