<svg width="125" height="73" viewBox="0 0 125 73" fill="none" xmlns="http://www.w3.org/2000/svg">
<path d="M8.95283 69.6615C5.24523 69.6615 3.80682 67.3551 3.80682 64.6271C3.80682 61.7503 5.62963 59.7787 8.95283 59.7787C11.4824 59.7787 12.5984 60.6715 12.5984 60.6715L11.9288 61.9363C11.9288 61.9363 11.036 61.1303 8.95283 61.1303C6.77043 61.1303 5.38163 62.4447 5.38163 64.6271C5.38163 66.6731 6.47283 68.3099 8.97763 68.3099C11.1476 68.3099 12.6728 67.2063 12.6728 67.2063L13.1316 68.4835C13.1316 68.4835 11.656 69.6615 8.95283 69.6615Z" fill="#525252"/>
<path d="M20.9684 69.6608C17.4344 69.6608 15.8596 67.3792 15.8596 64.6884C15.8596 61.7868 17.7692 59.7656 20.9684 59.7656C24.1676 59.7656 26.0772 61.7744 26.0772 64.6884C26.0772 67.3792 24.4776 69.6608 20.9684 69.6608ZM20.9684 61.1296C18.7488 61.1296 17.422 62.4936 17.422 64.6884C17.422 66.66 18.476 68.2968 20.9684 68.2968C23.4608 68.2968 24.5272 66.6476 24.5272 64.6884C24.5272 62.4936 23.188 61.1296 20.9684 61.1296Z" fill="#525252"/>
<path d="M37.8696 63.498L35.1788 69.4624H34.1868L31.4836 63.498V69.4624H29.9584V59.9516H31.3348L34.72 67.1188L38.0308 59.9516H39.4072V69.4624H37.8696V63.498Z" fill="#525252"/>
<path d="M43.8588 59.9516H48.0624C50.2324 59.9516 51.1376 60.956 51.1376 62.3572C51.1376 63.7832 50.3316 64.366 49.4884 64.6016C51.026 64.862 51.6088 65.606 51.6088 66.9328C51.6088 68.5324 50.2324 69.4624 48.236 69.4624H43.8588C43.8588 69.4624 43.8588 59.9516 43.8588 59.9516ZM45.3716 64.0684H48.0128C48.8064 64.0684 49.5628 63.5848 49.5628 62.5556C49.5628 61.824 49.0296 61.2908 47.9756 61.2908H45.384V64.0684H45.3716ZM45.3716 68.1108H48.1864C49.3768 68.1108 50.0588 67.6892 50.0588 66.7468C50.0588 65.7176 49.2528 65.2464 48.05 65.2464H45.3716V68.1108Z" fill="#525252"/>
<path d="M59.9912 69.6608C56.4572 69.6608 54.8824 67.3792 54.8824 64.6884C54.8824 61.7868 56.792 59.7656 59.9912 59.7656C63.1904 59.7656 65.1 61.7744 65.1 64.6884C65.1 67.3792 63.5004 69.6608 59.9912 69.6608ZM59.9912 61.1296C57.7716 61.1296 56.4448 62.4936 56.4448 64.6884C56.4448 66.66 57.4988 68.2968 59.9912 68.2968C62.4836 68.2968 63.55 66.6476 63.55 64.6884C63.55 62.4936 62.2108 61.1296 59.9912 61.1296Z" fill="#525252"/>
<path d="M77.9712 61.1792C76.2972 61.1792 75.6028 61.7372 75.6028 62.4812C75.6028 63.3988 76.508 63.7708 78.12 64.0436C80.6869 64.4776 81.9393 65.0356 81.9393 66.8336C81.9393 68.4084 80.6744 69.6732 77.9216 69.6732C74.8216 69.6732 73.6932 68.334 73.6932 68.334L74.4124 67.1188C74.4124 67.1188 75.64 68.3092 77.9216 68.3092C79.4468 68.3092 80.3025 67.7884 80.3025 66.9576C80.3025 66.1144 79.8684 65.8416 77.8844 65.482C75.5532 65.0728 73.966 64.5272 73.966 62.6176C73.9536 61.1544 75.206 59.7904 77.9588 59.7904C80.4389 59.7904 81.8773 60.77 81.8773 60.77L81.3316 62.0844C81.3316 62.072 80.1412 61.1792 77.9712 61.1792Z" fill="#525252"/>
<path d="M92.504 65.4572H87.3456V69.4624H85.8204V59.9516H87.3456V64.0932H92.504V59.9516H94.0292V69.4624H92.504V65.4572Z" fill="#525252"/>
<path d="M103.032 69.6608C99.4976 69.6608 97.9229 67.3792 97.9229 64.6884C97.9229 61.7868 99.8324 59.7656 103.032 59.7656C106.218 59.7656 108.14 61.7744 108.14 64.6884C108.14 67.3792 106.541 69.6608 103.032 69.6608ZM103.032 61.1296C100.812 61.1296 99.4853 62.4936 99.4853 64.6884C99.4853 66.66 100.539 68.2968 103.032 68.2968C105.512 68.2968 106.59 66.6476 106.59 64.6884C106.59 62.4936 105.251 61.1296 103.032 61.1296Z" fill="#525252"/>
<path d="M114.402 61.2784H110.509V59.9516H119.846V61.2784H115.928V69.4624H114.402V61.2784Z" fill="#525252"/>
<path d="M124.025 72.4508H0.0248413V72.7236H124.025V72.4508Z" fill="#525252"/>
<path d="M124.025 55.0908H0.0248413V55.3636H124.025V55.0908Z" fill="#525252"/>
<path d="M78.6656 7.80959C80.9472 7.80959 83.1668 8.21879 85.3244 9.03719C87.482 9.85559 89.6768 11.1204 91.9212 12.844L96.596 6.37119C94.2772 4.53599 91.574 3.09759 88.474 2.05599C81.3812 -0.324808 72.5772 -0.461209 66.6004 4.59799C56.7672 12.906 55.4776 36.28 39.68 36.28C32.1408 36.28 26.04 30.1792 26.04 22.64C26.04 15.1008 32.1408 8.99999 39.68 8.99999C44.0448 8.99999 47.9136 11.0584 50.406 14.2328L55.924 9.19839C52.0552 4.53599 46.2148 1.55999 39.68 1.55999C28.0364 1.55999 18.6 10.9964 18.6 22.64C18.6 34.2836 28.0364 43.72 39.68 43.72C51.4848 43.72 57.722 34.3952 62.744 25.0208C66.402 18.2256 69.2788 7.80959 78.6656 7.80959Z" fill="#525252"/>
<path d="M94.2897 22.4168C92.1941 20.4328 89.0569 19.106 84.9029 18.424L76.9917 17.1096C76.0741 16.9732 75.1441 16.7872 74.2637 16.4896C73.5693 16.2416 72.3417 15.8448 71.9201 15.2C70.3205 16.7004 68.7333 19.7136 67.9273 22.5036C69.5021 23.4088 71.4241 24.0412 73.6933 24.4256L82.0261 25.864C84.5061 26.2608 86.2793 26.8684 87.3333 27.662C88.3873 28.4556 88.9205 29.584 88.9205 31.0224C88.9205 32.622 88.1393 33.8992 86.5769 34.854C85.0145 35.8088 82.9437 36.2924 80.3397 36.2924C77.8225 36.2924 75.4293 35.8088 73.1725 34.8292C70.9157 33.8496 68.5597 32.2996 66.1293 30.1792L61.1569 36.4164C63.6741 38.698 66.5633 40.4712 69.8245 41.7484C73.0857 43.0256 76.3841 43.6704 79.7445 43.6704C85.1013 43.6704 89.3917 42.4552 92.6033 40.0124C95.8149 37.5696 97.4269 34.3208 97.4269 30.2412C97.4393 26.9924 96.3853 24.3884 94.2897 22.4168Z" fill="#525252"/>
</svg>
