<svg width="186" height="174" viewBox="0 0 186 174" fill="none" xmlns="http://www.w3.org/2000/svg">
<path d="M39.9529 110.661C36.2453 110.661 34.8069 108.355 34.8069 105.627C34.8069 102.75 36.6297 100.779 39.9529 100.779C42.4825 100.779 43.5985 101.671 43.5985 101.671L42.9289 102.936C42.9289 102.936 42.0361 102.13 39.9529 102.13C37.7705 102.13 36.3817 103.445 36.3817 105.627C36.3817 107.673 37.4729 109.31 39.9777 109.31C42.1477 109.31 43.6729 108.206 43.6729 108.206L44.1317 109.483C44.1317 109.483 42.6561 110.661 39.9529 110.661Z" fill="#F5F5F5"/>
<path d="M51.9684 110.661C48.4344 110.661 46.8596 108.379 46.8596 105.688C46.8596 102.787 48.7692 100.766 51.9684 100.766C55.1676 100.766 57.0772 102.774 57.0772 105.688C57.0772 108.379 55.4776 110.661 51.9684 110.661ZM51.9684 102.13C49.7488 102.13 48.422 103.494 48.422 105.688C48.422 107.66 49.476 109.297 51.9684 109.297C54.4608 109.297 55.5272 107.648 55.5272 105.688C55.5272 103.494 54.188 102.13 51.9684 102.13Z" fill="#F5F5F5"/>
<path d="M68.8697 104.498L66.1789 110.462H65.1869L62.4837 104.498V110.462H60.9585V100.952H62.3349L65.7201 108.119L69.0309 100.952H70.4073V110.462H68.8697V104.498Z" fill="#F5F5F5"/>
<path d="M74.8589 100.952H79.0625C81.2325 100.952 82.1377 101.956 82.1377 103.357C82.1377 104.783 81.3317 105.366 80.4885 105.602C82.0261 105.862 82.6089 106.606 82.6089 107.933C82.6089 109.532 81.2325 110.462 79.2361 110.462H74.8589C74.8589 110.462 74.8589 100.952 74.8589 100.952ZM76.3717 105.068H79.0129C79.8065 105.068 80.5629 104.585 80.5629 103.556C80.5629 102.824 80.0297 102.291 78.9757 102.291H76.3841V105.068H76.3717ZM76.3717 109.111H79.1865C80.3769 109.111 81.0589 108.689 81.0589 107.747C81.0589 106.718 80.2529 106.246 79.0501 106.246H76.3717V109.111Z" fill="#F5F5F5"/>
<path d="M90.9914 110.661C87.4574 110.661 85.8826 108.379 85.8826 105.688C85.8826 102.787 87.7922 100.766 90.9914 100.766C94.1906 100.766 96.1002 102.774 96.1002 105.688C96.1002 108.379 94.5006 110.661 90.9914 110.661ZM90.9914 102.13C88.7718 102.13 87.445 103.494 87.445 105.688C87.445 107.66 88.499 109.297 90.9914 109.297C93.4838 109.297 94.5502 107.648 94.5502 105.688C94.5502 103.494 93.211 102.13 90.9914 102.13Z" fill="#F5F5F5"/>
<path d="M108.971 102.179C107.297 102.179 106.603 102.737 106.603 103.481C106.603 104.399 107.508 104.771 109.12 105.044C111.687 105.478 112.939 106.036 112.939 107.834C112.939 109.408 111.675 110.673 108.922 110.673C105.822 110.673 104.693 109.334 104.693 109.334L105.413 108.119C105.413 108.119 106.64 109.309 108.922 109.309C110.447 109.309 111.303 108.788 111.303 107.958C111.303 107.114 110.869 106.842 108.885 106.482C106.553 106.073 104.966 105.527 104.966 103.618C104.954 102.154 106.206 100.79 108.959 100.79C111.439 100.79 112.877 101.77 112.877 101.77L112.332 103.084C112.332 103.072 111.141 102.179 108.971 102.179Z" fill="#F5F5F5"/>
<path d="M123.504 106.457H118.346V110.462H116.821V100.952H118.346V105.093H123.504V100.952H125.029V110.462H123.504V106.457Z" fill="#F5F5F5"/>
<path d="M134.032 110.661C130.498 110.661 128.923 108.379 128.923 105.688C128.923 102.787 130.832 100.766 134.032 100.766C137.218 100.766 139.14 102.774 139.14 105.688C139.14 108.379 137.541 110.661 134.032 110.661ZM134.032 102.13C131.812 102.13 130.485 103.494 130.485 105.688C130.485 107.66 131.539 109.297 134.032 109.297C136.512 109.297 137.59 107.648 137.59 105.688C137.59 103.494 136.251 102.13 134.032 102.13Z" fill="#F5F5F5"/>
<path d="M145.402 102.278H141.509V100.952H150.846V102.278H146.928V110.462H145.402V102.278Z" fill="#F5F5F5"/>
<path d="M155.025 113.451H31.0249V113.724H155.025V113.451Z" fill="#F5F5F5"/>
<path d="M155.025 96.0908H31.0249V96.3636H155.025V96.0908Z" fill="#F5F5F5"/>
<path d="M109.666 48.8096C111.947 48.8096 114.167 49.2188 116.324 50.0372C118.482 50.8556 120.677 52.1204 122.921 53.844L127.596 47.3712C125.277 45.536 122.574 44.0976 119.474 43.056C112.381 40.6752 103.577 40.5388 97.6005 45.598C87.7673 53.906 86.4777 77.28 70.6801 77.28C63.1409 77.28 57.0401 71.1792 57.0401 63.64C57.0401 56.1008 63.1409 50 70.6801 50C75.0449 50 78.9137 52.0584 81.4061 55.2328L86.9241 50.1984C83.0553 45.536 77.2149 42.56 70.6801 42.56C59.0365 42.56 49.6001 51.9964 49.6001 63.64C49.6001 75.2836 59.0365 84.72 70.6801 84.72C82.4849 84.72 88.7221 75.3952 93.7441 66.0208C97.4021 59.2256 100.279 48.8096 109.666 48.8096Z" fill="#F5F5F5"/>
<path d="M125.29 63.4168C123.194 61.4328 120.057 60.106 115.903 59.424L107.992 58.1096C107.074 57.9732 106.144 57.7872 105.264 57.4896C104.569 57.2416 103.342 56.8448 102.92 56.2C101.321 57.7004 99.7334 60.7136 98.9274 63.5036C100.502 64.4088 102.424 65.0412 104.693 65.4256L113.026 66.864C115.506 67.2608 117.279 67.8684 118.333 68.662C119.387 69.4556 119.921 70.584 119.921 72.0224C119.921 73.622 119.139 74.8992 117.577 75.854C116.015 76.8088 113.944 77.2924 111.34 77.2924C108.823 77.2924 106.429 76.8088 104.173 75.8292C101.916 74.8496 99.5598 73.2996 97.1294 71.1792L92.157 77.4164C94.6742 79.698 97.5634 81.4712 100.825 82.7484C104.086 84.0256 107.384 84.6704 110.745 84.6704C116.101 84.6704 120.392 83.4552 123.603 81.0124C126.815 78.5696 128.427 75.3208 128.427 71.2412C128.439 67.9924 127.385 65.3884 125.29 63.4168Z" fill="#F5F5F5"/>
</svg>
