<svg width="257" height="16" viewBox="0 0 257 16" fill="none" xmlns="http://www.w3.org/2000/svg">
<path d="M143.756 6.65151V12.3178H145.773C147.281 12.3178 148.154 11.1007 148.154 9.49701C148.154 7.88511 147.281 6.65151 145.773 6.65151H143.756ZM144.266 11.8079V7.1614H145.773C146.987 7.1614 147.644 8.18117 147.644 9.49701C147.644 10.8046 146.987 11.8079 145.773 11.8079H144.266Z" fill="#A1A1A1"/>
<path d="M149.867 9.79307H152.078V9.28318H149.867V7.1614H152.402V6.65151H149.365V12.3178H152.487V11.8079H149.867V9.79307Z" fill="#A1A1A1"/>
<path d="M154.989 11.4625L153.644 6.65151H153.118L154.726 12.3178H155.259L156.86 6.65151H156.334L154.989 11.4625Z" fill="#A1A1A1"/>
<path d="M158.382 9.79307H160.593V9.28318H158.382V7.1614H160.917V6.65151H157.879V12.3178H161.002V11.8079H158.382V9.79307Z" fill="#A1A1A1"/>
<path d="M162.7 6.65151H162.19V12.3178H164.965V11.8079H162.7V6.65151Z" fill="#A1A1A1"/>
<path d="M167.935 12.4165C169.45 12.4165 170.625 11.1007 170.625 9.49701C170.625 7.88511 169.45 6.55282 167.935 6.55282C166.42 6.55282 165.245 7.88511 165.245 9.49701C165.245 11.1007 166.42 12.4165 167.935 12.4165ZM167.935 11.9066C166.706 11.9066 165.756 10.8128 165.756 9.49701C165.756 8.18117 166.706 7.06271 167.935 7.06271C169.164 7.06271 170.115 8.18117 170.115 9.49701C170.115 10.8128 169.164 11.9066 167.935 11.9066Z" fill="#A1A1A1"/>
<path d="M171.822 6.65151V12.3178H172.332V10.1056H173.893C175.006 10.1056 175.439 9.25851 175.439 8.37855C175.439 7.5068 175.006 6.65151 173.917 6.65151H171.822ZM172.332 9.59569V7.1614H173.909C174.643 7.1614 174.929 7.76997 174.929 8.37855C174.929 8.99534 174.635 9.59569 173.87 9.59569H172.332Z" fill="#A1A1A1"/>
<path d="M177.02 9.79307H179.23V9.28318H177.02V7.1614H179.555V6.65151H176.517V12.3178H179.64V11.8079H177.02V9.79307Z" fill="#A1A1A1"/>
<path d="M180.827 6.65151V12.3178H182.845C184.352 12.3178 185.226 11.1007 185.226 9.49701C185.226 7.88511 184.352 6.65151 182.845 6.65151H180.827ZM181.338 11.8079V7.1614H182.845C184.058 7.1614 184.715 8.18117 184.715 9.49701C184.715 10.8046 184.058 11.8079 182.845 11.8079H181.338Z" fill="#A1A1A1"/>
<path d="M191.103 9.29963C191.597 9.08581 191.806 8.55947 191.806 8.04959C191.806 7.16962 191.25 6.65151 190.392 6.65151H188.459V12.3178H190.585C191.528 12.3178 192.092 11.5612 192.092 10.7553C192.092 10.1631 191.783 9.48878 191.103 9.29963ZM191.296 8.09071C191.296 8.64994 191.01 9.08581 190.484 9.08581H188.969V7.1614H190.384C190.948 7.1614 191.296 7.51503 191.296 8.09071ZM188.969 11.8079V9.5628H190.477C191.172 9.5628 191.582 10.1056 191.582 10.7142C191.582 11.2981 191.188 11.8079 190.5 11.8079H188.969Z" fill="#A1A1A1"/>
<path d="M194.693 9.13515L193.031 6.65151H192.428L194.43 9.66149V12.3178H194.94V9.66149L196.973 6.65151H196.362L194.693 9.13515Z" fill="#A1A1A1"/>
<path d="M201.929 10.7471V10.0562H199.255V10.7471H201.929Z" fill="#A1A1A1"/>
<path d="M208.226 12.4306C209.949 12.4306 211.327 10.9174 211.327 9.08463C211.327 7.24246 209.949 5.72925 208.226 5.72925C206.494 5.72925 205.134 7.24246 205.134 9.08463C205.134 10.9174 206.494 12.4306 208.226 12.4306ZM208.226 11.1994C207.13 11.1994 206.362 10.2501 206.362 9.08463C206.362 7.91918 207.13 6.9605 208.226 6.9605C209.313 6.9605 210.09 7.91918 210.09 9.08463C210.09 10.2501 209.313 11.1994 208.226 11.1994Z" fill="#A1A1A1"/>
<path d="M212.441 5.84203V12.3178H213.669V10.0527H214.924C216.302 10.0527 216.911 9.01884 216.911 7.95677C216.911 6.8947 216.302 5.84203 214.924 5.84203H212.441ZM213.669 8.90605V6.99809H214.879C215.454 6.99809 215.674 7.48683 215.674 7.95677C215.674 8.41732 215.454 8.90605 214.862 8.90605H213.669Z" fill="#A1A1A1"/>
<path d="M220.614 12.4306C222.337 12.4306 223.715 10.9174 223.715 9.08463C223.715 7.24246 222.337 5.72925 220.614 5.72925C218.883 5.72925 217.522 7.24246 217.522 9.08463C217.522 10.9174 218.883 12.4306 220.614 12.4306ZM220.614 11.1994C219.519 11.1994 218.75 10.2501 218.75 9.08463C218.75 7.91918 219.519 6.9605 220.614 6.9605C221.701 6.9605 222.478 7.91918 222.478 9.08463C222.478 10.2501 221.701 11.1994 220.614 11.1994Z" fill="#A1A1A1"/>
<path d="M224.83 5.84203V12.3178H226.058V10.0527H227.312C228.69 10.0527 229.3 9.01884 229.3 7.95677C229.3 6.8947 228.69 5.84203 227.312 5.84203H224.83ZM226.058 8.90605V6.99809H227.268C227.842 6.99809 228.063 7.48683 228.063 7.95677C228.063 8.41732 227.842 8.90605 227.25 8.90605H226.058Z" fill="#A1A1A1"/>
<path d="M236.607 5.84203H236.068L233.727 10.9832L231.386 5.84203H230.838L230.088 12.3178H230.653L231.28 6.9323L233.462 11.6505H234.001L236.165 6.9511L236.793 12.3178H237.367L236.607 5.84203Z" fill="#A1A1A1"/>
<path d="M239.383 9.43239H241.91V8.84966H239.383V6.42476H242.281V5.84203H238.809V12.3178H242.378V11.7351H239.383V9.43239Z" fill="#A1A1A1"/>
<path d="M243.735 5.84203V12.3178H246.041C247.764 12.3178 248.762 10.9268 248.762 9.09403C248.762 7.25186 247.764 5.84203 246.041 5.84203H243.735ZM244.318 11.7351V6.42476H246.041C247.428 6.42476 248.179 7.59022 248.179 9.09403C248.179 10.5884 247.428 11.7351 246.041 11.7351H244.318Z" fill="#A1A1A1"/>
<path d="M250.728 12.3178V5.84203H250.145V12.3178H250.728Z" fill="#A1A1A1"/>
<path d="M256.935 12.3178L254.62 5.84203H254.002L251.678 12.3178H252.297L252.906 10.5978H255.715L256.325 12.3178H256.935ZM254.311 6.65973L255.512 10.0433H253.109L254.311 6.65973Z" fill="#A1A1A1"/>
<path d="M15.647 5.66748H21.6578V6.7882H19.2911V13.1059H17.9939V6.7882H15.6371L15.647 5.66748ZM21.4003 7.72048H22.5094V8.76185H22.5292C22.572 8.60818 22.6424 8.46365 22.7371 8.33538C22.8383 8.19092 22.9621 8.06368 23.1035 7.9585C23.245 7.83948 23.4058 7.74556 23.5789 7.6808C23.7451 7.61059 23.9233 7.57353 24.1037 7.57171C24.2423 7.57171 24.3414 7.58163 24.3909 7.58163C24.443 7.59311 24.496 7.59975 24.5493 7.60146V8.74202C24.4644 8.72321 24.3784 8.70996 24.2918 8.70234C24.2065 8.69081 24.1205 8.68418 24.0344 8.68251C23.8399 8.68175 23.6476 8.72231 23.4699 8.80152C23.2928 8.88418 23.1344 9.00232 23.0045 9.14865C22.8661 9.32033 22.7588 9.51503 22.6876 9.72388C22.6044 9.97992 22.5642 10.2481 22.5688 10.5173V13.0761H21.3805L21.4003 7.72048ZM29.9957 13.1059H28.8272V12.3571H28.8074C28.6558 12.6329 28.4292 12.8599 28.1538 13.0117C27.8877 13.1723 27.5832 13.258 27.2725 13.2596C26.5694 13.2596 26.0545 13.091 25.7376 12.734C25.4207 12.3769 25.2623 11.8513 25.2623 11.1471V7.72544H26.4506V11.0281C26.4506 11.5041 26.5397 11.8413 26.7279 12.0298C26.916 12.2182 27.1636 12.3273 27.4903 12.3273C27.7045 12.334 27.9175 12.2933 28.1142 12.2083C28.2721 12.1398 28.4114 12.0344 28.5202 11.9009C28.629 11.7639 28.7067 11.6048 28.748 11.4347C28.7971 11.2437 28.8205 11.0468 28.8173 10.8496V7.72544H30.0056V13.1108L29.9957 13.1059ZM32.0158 11.3802C32.0554 11.7273 32.1841 11.9653 32.4119 12.1141C32.6614 12.2582 32.9459 12.3303 33.2338 12.3224C33.3597 12.3212 33.4855 12.3112 33.6101 12.2926C33.7457 12.276 33.8787 12.2427 34.0062 12.1934C34.1266 12.1505 34.2329 12.0749 34.3132 11.9752C34.3959 11.8718 34.435 11.7401 34.4221 11.6083C34.4204 11.5374 34.4047 11.4676 34.3758 11.4029C34.3469 11.3382 34.3054 11.2799 34.2537 11.2314C34.1357 11.1307 34.0019 11.0503 33.8576 10.9934C33.6773 10.9284 33.4918 10.8786 33.3031 10.8446C33.0951 10.8049 32.8872 10.7553 32.6693 10.7058C32.4515 10.6562 32.2336 10.5967 32.0257 10.5272C31.8259 10.4636 31.6383 10.3663 31.4711 10.2396C31.3071 10.1215 31.1745 9.96482 31.0849 9.78339C30.9794 9.5712 30.9283 9.33599 30.9364 9.09906C30.925 8.8369 31.0017 8.57849 31.1543 8.36514C31.2968 8.16654 31.4831 8.00361 31.6989 7.88908C31.9281 7.76504 32.1754 7.67802 32.4317 7.63122C32.6832 7.58485 32.9384 7.56161 33.1942 7.56179C33.4608 7.5604 33.7267 7.59036 33.9864 7.65105C34.23 7.7035 34.4617 7.80104 34.6696 7.93867C34.8757 8.06895 35.0486 8.24553 35.1747 8.4544C35.3175 8.68597 35.4056 8.94718 35.4321 9.21807H34.1943C34.1349 8.93045 34.0062 8.74202 33.8081 8.64284C33.5881 8.54034 33.3477 8.48946 33.1051 8.49407C33.0258 8.49407 32.9169 8.50399 32.808 8.5139C32.6968 8.52978 32.5873 8.55635 32.4812 8.59325C32.385 8.63164 32.2974 8.68897 32.2237 8.76185C32.1874 8.80011 32.159 8.84527 32.1403 8.89465C32.1216 8.94404 32.1129 8.99668 32.1148 9.04947C32.112 9.11478 32.1239 9.17988 32.1496 9.23996C32.1753 9.30004 32.2142 9.35357 32.2633 9.39659C32.3814 9.49469 32.5154 9.57184 32.6594 9.6247C32.8398 9.6897 33.0253 9.73947 33.214 9.77347C33.4219 9.81314 33.6398 9.86273 33.8576 9.91232C34.0755 9.96191 34.2834 10.0214 34.4914 10.0908C34.6921 10.1523 34.88 10.2498 35.0459 10.3785C35.2079 10.4977 35.3428 10.6497 35.442 10.8248C35.5466 11.0302 35.5977 11.2588 35.5906 11.4893C35.6001 11.776 35.5243 12.0591 35.3727 12.3025C35.2256 12.5226 35.0332 12.7086 34.8083 12.848C34.5675 12.9884 34.3072 13.092 34.0359 13.1555C33.7594 13.2172 33.4774 13.2504 33.1942 13.2546C32.8767 13.2573 32.5603 13.2173 32.2534 13.1356C31.9843 13.0646 31.7297 12.9471 31.5008 12.7885C31.2926 12.6347 31.1231 12.4343 31.0057 12.2033C30.8776 11.9442 30.8099 11.6594 30.8077 11.3702H32.0059V11.3802H32.0158ZM35.9273 7.72048H36.8284V6.09395H38.0167V7.71056H39.0862V8.59325H38.0167V11.4694C38.0174 11.5788 38.024 11.6881 38.0365 11.7967C38.0461 11.8762 38.0696 11.9534 38.1058 12.0248C38.1475 12.0863 38.2059 12.1345 38.2741 12.1637C38.3759 12.1994 38.4833 12.2162 38.591 12.2133C38.6737 12.2149 38.7563 12.2116 38.8386 12.2033C38.9218 12.195 39.0045 12.1817 39.0862 12.1637V13.086C38.9574 13.1059 38.8287 13.1158 38.7 13.1257C38.5719 13.1425 38.4428 13.1491 38.3138 13.1455C38.0599 13.1534 37.8062 13.1233 37.5612 13.0563C37.3941 13.0075 37.2412 12.919 37.1156 12.7984C37.0067 12.678 36.9316 12.5308 36.8977 12.3719C36.8571 12.176 36.8339 11.9769 36.8284 11.7769V8.60317H35.9273V7.72048ZM39.918 7.72048H41.0369V8.4544H41.0567C41.2053 8.1578 41.4496 7.92016 41.7499 7.77998C42.0538 7.63891 42.3854 7.56775 42.7204 7.57171C43.1028 7.5596 43.4827 7.63774 43.8294 7.79982C44.136 7.93841 44.4045 8.14941 44.6117 8.41473C44.8266 8.68442 44.9849 8.99476 45.0772 9.32717C45.2815 10.0324 45.2883 10.7804 45.097 11.4893C45.0078 11.8124 44.8638 12.1177 44.6712 12.3918C44.4811 12.6527 44.2338 12.8665 43.9483 13.0166C43.6303 13.1811 43.2762 13.2629 42.9184 13.2546C42.7457 13.2529 42.5734 13.2363 42.4035 13.205C42.2332 13.1752 42.067 13.1253 41.9084 13.0563C41.751 12.9885 41.6042 12.8983 41.4727 12.7885C41.3401 12.6827 41.2263 12.5553 41.136 12.4116H41.1162V15.0994H39.9279V7.72048H39.918ZM44.0671 10.4181C44.0689 10.1798 44.0356 9.94251 43.9681 9.71396C43.9111 9.49605 43.8137 9.29082 43.6809 9.10898C43.5559 8.93701 43.3976 8.79198 43.2155 8.68251C43.0188 8.57332 42.7966 8.51855 42.5718 8.52382C42.0767 8.52382 41.7004 8.69243 41.4429 9.03955C41.1855 9.38668 41.0666 9.85282 41.0666 10.4281C41.0621 10.6828 41.0955 10.9369 41.1657 11.1818C41.2241 11.398 41.3251 11.6004 41.4627 11.7769C41.59 11.9426 41.7523 12.0781 41.9381 12.1736C42.1369 12.2761 42.3582 12.3272 42.5817 12.3224C42.8205 12.3293 43.0567 12.271 43.265 12.1538C43.4469 12.044 43.6051 11.899 43.7304 11.7273C43.8537 11.5438 43.9411 11.3385 43.9879 11.1223C44.0387 10.891 44.0652 10.655 44.0671 10.4181ZM46.1565 5.66748H47.3448V6.7882H46.1565V5.66748ZM46.1565 7.72048H47.3448V13.1059H46.1565V7.72048ZM48.4044 5.66748H49.5927V13.1059H48.4044V5.66748ZM53.217 13.2546C52.8231 13.2628 52.4319 13.1885 52.0683 13.0364C51.7483 12.9002 51.4588 12.7013 51.2167 12.4513C50.9814 12.19 50.8027 11.8827 50.6919 11.5488C50.5669 11.1815 50.5034 10.7962 50.5037 10.4082C50.4984 10.0231 50.5622 9.64016 50.6919 9.27758C50.805 8.94471 50.9834 8.63786 51.2167 8.37505C51.4543 8.11984 51.745 7.92007 52.0683 7.7899C52.4333 7.64256 52.8235 7.56843 53.217 7.57171C53.6109 7.56357 54.0021 7.63789 54.3657 7.7899C54.6876 7.92253 54.9779 8.12196 55.2173 8.37505C55.4526 8.63637 55.6313 8.94367 55.7421 9.27758C55.8671 9.64138 55.9307 10.0235 55.9303 10.4082C55.9364 10.7966 55.8726 11.183 55.7421 11.5488C55.6251 11.8798 55.4471 12.186 55.2173 12.4513C54.9797 12.7065 54.6889 12.9063 54.3657 13.0364C54.001 13.1847 53.6105 13.2588 53.217 13.2546ZM53.217 12.3124C53.4555 12.3168 53.6911 12.2587 53.9003 12.1438C54.0897 12.0364 54.2523 11.8872 54.3756 11.7075C54.5034 11.524 54.5973 11.3191 54.6529 11.1025C54.7717 10.6506 54.7717 10.1757 54.6529 9.72388C54.5993 9.50654 54.5052 9.30128 54.3756 9.11889C54.2494 8.94432 54.0873 8.7989 53.9003 8.69243C53.6906 8.57876 53.4554 8.52072 53.217 8.52382C52.9785 8.51946 52.7429 8.57758 52.5337 8.69243C52.3469 8.7992 52.1848 8.94457 52.0584 9.11889C51.9288 9.30128 51.8347 9.50654 51.7811 9.72388C51.6623 10.1757 51.6623 10.6506 51.7811 11.1025C51.8347 11.3198 51.9288 11.5251 52.0584 11.7075C52.1842 11.885 52.3462 12.0337 52.5337 12.1438C52.7416 12.262 52.9781 12.3204 53.217 12.3124ZM56.2868 7.72048H57.1879V6.09395H58.3762V7.71056H59.4457V8.59325H58.3762V11.4694C58.3769 11.5788 58.3835 11.6881 58.396 11.7967C58.4057 11.8762 58.4291 11.9534 58.4653 12.0248C58.507 12.0863 58.5654 12.1345 58.6337 12.1637C58.7354 12.1994 58.8428 12.2162 58.9505 12.2133C59.0332 12.2149 59.1158 12.2116 59.1981 12.2033C59.2813 12.195 59.364 12.1817 59.4457 12.1637V13.086C59.3169 13.1059 59.1882 13.1158 59.0595 13.1257C58.9314 13.1425 58.8023 13.1491 58.6733 13.1455C58.4194 13.1534 58.1657 13.1233 57.9207 13.0563C57.7536 13.0075 57.6007 12.919 57.4751 12.7984C57.3662 12.678 57.2911 12.5308 57.2572 12.3719C57.2166 12.176 57.1934 11.9769 57.1879 11.7769V8.60317H56.2868V7.72048Z" fill="#4A4A4A"/>
<path d="M14.2099 5.68449H8.78105L7.10988 0.51709L5.42882 5.68449L0 5.67459L4.39052 8.87204L2.70947 14.0394L7.09999 10.842L11.4905 14.0444L9.81935 8.87699L14.2099 5.68449Z" fill="#00B67A"/>
<path d="M10.1765 10.0715L9.80617 8.89404L7.13596 10.8797L10.1765 10.0715Z" fill="#005128"/>
<rect x="63.8958" y="3.77734" width="11.6037" height="11.4175" fill="#00AE73"/>
<rect x="76.3062" y="3.7771" width="11.6037" height="11.4175" fill="#00AE73"/>
<rect x="88.7165" y="3.7771" width="11.6037" height="11.4175" fill="#00AE73"/>
<rect x="101.127" y="3.7771" width="11.6037" height="11.4175" fill="#00AE73"/>
<rect x="113.537" y="3.7771" width="11.6037" height="11.4175" fill="#00AE73"/>
<path d="M69.6666 11.6218L71.5539 11.1418L72.3427 13.5813L69.6666 11.6218ZM74.0103 8.46871H70.6877L69.6666 5.32837L68.6455 8.46871H65.323L68.0121 10.4151L66.991 13.5555L69.68 11.6091L71.3346 10.4151L74.0103 8.46871Z" fill="white"/>
<path d="M82.077 11.6218L83.9643 11.1418L84.753 13.5813L82.077 11.6218ZM86.4206 8.46871H83.0981L82.077 5.32837L81.0559 8.46871H77.7334L80.4224 10.4151L79.4013 13.5555L82.0904 11.6091L83.7449 10.4151L86.4206 8.46871Z" fill="white"/>
<path d="M94.4874 11.6218L96.3747 11.1418L97.1634 13.5813L94.4874 11.6218ZM98.831 8.46871H95.5085L94.4874 5.32837L93.4662 8.46871H90.1437L92.8328 10.4151L91.8117 13.5555L94.5007 11.6091L96.1553 10.4151L98.831 8.46871Z" fill="white"/>
<path d="M106.898 11.6218L108.785 11.1418L109.574 13.5813L106.898 11.6218ZM111.241 8.46871H107.919L106.898 5.32837L105.877 8.46871H102.554L105.243 10.4151L104.222 13.5555L106.911 11.6091L108.566 10.4151L111.241 8.46871Z" fill="white"/>
<path d="M119.308 11.6218L121.195 11.1418L121.984 13.5813L119.308 11.6218ZM123.652 8.46871H120.329L119.308 5.32837L118.287 8.46871H114.964L117.654 10.4151L116.632 13.5555L119.321 11.6091L120.976 10.4151L123.652 8.46871Z" fill="white"/>
</svg>
