<svg width="14" height="15" viewBox="0 0 14 15" fill="none" xmlns="http://www.w3.org/2000/svg">
<circle cx="6.83601" cy="7.79134" r="4.99788" fill="white"/>
<path d="M7 0.637451C3.13438 0.637451 0 3.77183 0 7.63745C0 11.5031 3.13438 14.6375 7 14.6375C10.8656 14.6375 14 11.5031 14 7.63745C14 3.77183 10.8656 0.637451 7 0.637451ZM10.0234 5.35151L6.73281 9.91401C6.68682 9.97821 6.62619 10.0305 6.55595 10.0666C6.48571 10.1027 6.40787 10.1215 6.32891 10.1215C6.24994 10.1215 6.17211 10.1027 6.10186 10.0666C6.03162 10.0305 5.97099 9.97821 5.925 9.91401L3.97656 7.21401C3.91719 7.1312 3.97656 7.01558 4.07812 7.01558H4.81094C4.97031 7.01558 5.12187 7.09214 5.21562 7.22339L6.32812 8.76714L8.78438 5.36089C8.87813 5.2312 9.02812 5.15308 9.18906 5.15308H9.92188C10.0234 5.15308 10.0828 5.2687 10.0234 5.35151Z" fill="#40A737"/>
</svg>
