<svg width="21" height="21" viewBox="0 0 21 21" fill="none" xmlns="http://www.w3.org/2000/svg">
<path fill-rule="evenodd" clip-rule="evenodd" d="M20.3057 10.5557C20.3057 13.1628 19.27 15.6632 17.4264 17.5068C15.5829 19.3503 13.0825 20.386 10.4753 20.386C7.86818 20.386 5.3678 19.3503 3.52426 17.5068C1.68071 15.6632 0.64502 13.1628 0.64502 10.5557C0.64502 7.94851 1.68071 5.44812 3.52426 3.60458C5.3678 1.76103 7.86818 0.725342 10.4753 0.725342C13.0825 0.725342 15.5829 1.76103 17.4264 3.60458C19.27 5.44812 20.3057 7.94851 20.3057 10.5557ZM15.4274 6.83243C15.3396 6.74497 15.2351 6.6761 15.1201 6.62995C15.0051 6.5838 14.882 6.56131 14.7581 6.56383C14.6342 6.56636 14.5121 6.59384 14.3991 6.64464C14.286 6.69543 14.1844 6.7685 14.1003 6.85947L9.83269 12.2969L7.26083 9.72378C7.08613 9.56099 6.85506 9.47236 6.6163 9.47658C6.37755 9.48079 6.14975 9.57751 5.9809 9.74636C5.81204 9.91521 5.71532 10.143 5.71111 10.3818C5.7069 10.6205 5.79552 10.8516 5.95831 11.0263L9.20969 14.2789C9.29728 14.3663 9.40159 14.4352 9.51638 14.4815C9.63117 14.5277 9.75411 14.5504 9.87784 14.5481C10.0016 14.5458 10.1236 14.5186 10.2366 14.4681C10.3496 14.4177 10.4513 14.3449 10.5356 14.2543L15.4409 8.12266C15.6081 7.94879 15.7005 7.71627 15.6982 7.47504C15.6959 7.23381 15.5991 7.00309 15.4286 6.83243H15.4274Z" fill="#40A737"/>
</svg>
