<svg width="16" height="16" viewBox="0 0 16 16" fill="none" xmlns="http://www.w3.org/2000/svg">
<circle cx="7.69093" cy="7.96424" r="5.49293" fill="white"/>
<path d="M7.8711 0.101807C3.62258 0.101807 0.177734 3.54665 0.177734 7.79517C0.177734 12.0437 3.62258 15.4885 7.8711 15.4885C12.1196 15.4885 15.5645 12.0437 15.5645 7.79517C15.5645 3.54665 12.1196 0.101807 7.8711 0.101807ZM11.194 5.28281L7.57745 10.2972C7.5269 10.3678 7.46026 10.4253 7.38306 10.4649C7.30586 10.5046 7.22032 10.5253 7.13353 10.5253C7.04674 10.5253 6.9612 10.5046 6.884 10.4649C6.8068 10.4253 6.74017 10.3678 6.68962 10.2972L4.54818 7.32979C4.48293 7.23878 4.54818 7.1117 4.65981 7.1117H5.46521C5.64037 7.1117 5.80694 7.19585 5.90998 7.3401L7.13267 9.03676L9.83222 5.29311C9.93526 5.15058 10.1001 5.06471 10.277 5.06471H11.0824C11.194 5.06471 11.2593 5.19179 11.194 5.28281Z" fill="#40A737"/>
</svg>
