<svg width="1441" height="879" viewBox="0 0 1441 879" fill="none" xmlns="http://www.w3.org/2000/svg">
<mask id="mask0" mask-type="alpha" maskUnits="userSpaceOnUse" x="0" y="0" width="1441" height="879">
<rect x="0.556641" y="0.532715" width="1440" height="877.494" fill="#C4C4C4"/>
</mask>
<g mask="url(#mask0)">
<g style="mix-blend-mode:overlay">
<path d="M1617.59 53.6476H1458.05L1502.53 53.6476C1472.18 40.526 1430.11 30.137 1373.07 24.1481C1238.02 9.96607 1127.91 103.491 999.005 166.336C885.854 197.432 584.982 316.009 426.276 194.308C208.149 -20.746 19.9349 104.03 -61.7883 132.77L-110.183 743.614C-110.183 800.201 41.8697 843.491 89.1194 851.64C223.668 874.845 414.204 772.175 584.191 716.496C812.28 641.787 1003.47 615.054 1177.71 707.976C1458.05 870.542 1445.53 752.914 1502.53 743.614L1458.05 959.675H1617.59V53.6476Z" fill="url(#paint0_linear)"/>
<path d="M1617.59 53.6476H1457.98V98.4047C1427.62 85.2831 1385.53 74.8941 1328.47 68.9052C1193.36 54.7232 1060.78 119.331 931.821 182.177C757.084 267.33 588.988 349.248 430.213 227.546C241.765 83.0991 82.3155 87.9134 0.556641 116.654V777.834C28.2662 786.87 64.7502 795.514 112.02 803.663C246.628 826.868 413.679 772.175 583.74 716.496C811.928 641.787 1045.53 565.303 1213.45 672.853C1323.99 743.65 1400.96 757.694 1457.98 748.393V959.675H1617.59V53.6476Z" fill="url(#paint1_linear)"/>
<g style="mix-blend-mode:overlay">
<path d="M1617.59 53.6476H1457.98V98.4047C1427.62 85.2831 1385.53 74.8941 1328.47 68.9052C1193.36 54.7232 1060.78 119.331 931.821 182.177C757.084 267.33 588.988 349.248 430.213 227.546C241.765 83.0991 82.3155 87.9134 0.556641 116.654V777.834C28.2662 786.87 64.7502 795.514 112.02 803.663C246.628 826.868 413.679 772.175 583.74 716.496C811.928 641.787 1045.53 565.303 1213.45 672.853C1323.99 743.65 1400.96 757.694 1457.98 748.393V959.675H1617.59V53.6476Z" fill="url(#paint2_linear)"/>
</g>
</g>
</g>
<defs>
<linearGradient id="paint0_linear" x1="809.428" y1="53.6475" x2="809.428" y2="959.675" gradientUnits="userSpaceOnUse">
<stop stop-color="white"/>
<stop offset="1" stop-color="white"/>
</linearGradient>
<linearGradient id="paint1_linear" x1="809.076" y1="53.6476" x2="809.076" y2="959.675" gradientUnits="userSpaceOnUse">
<stop stop-color="#6241BB"/>
<stop offset="1" stop-color="#0066B1"/>
</linearGradient>
<linearGradient id="paint2_linear" x1="809.076" y1="53.6476" x2="809.076" y2="959.675" gradientUnits="userSpaceOnUse">
<stop stop-color="#6241BB"/>
<stop offset="1" stop-color="#0066B1"/>
</linearGradient>
</defs>
</svg>
