<svg width="325" height="21" viewBox="0 0 325 21" fill="none" xmlns="http://www.w3.org/2000/svg">
<path d="M50.1204 0.238701L44.6405 13.3113H41.0656L38.3689 2.87815C38.2054 2.23709 38.0633 2.00116 37.5658 1.73009C36.7526 1.28833 35.4097 0.875183 34.2292 0.61817L34.3089 0.238701H40.0645C40.797 0.238701 41.4565 0.726403 41.6242 1.57085L43.0491 9.1362L46.5668 0.238701H50.1204ZM54.9532 0.238701L52.157 13.3113H48.7746L51.5712 0.238701H54.9534H54.9532ZM64.1279 9.04317C64.1419 5.59362 59.3581 5.40216 59.3893 3.86091C59.4008 3.39233 59.8471 2.89351 60.8241 2.76599C61.3081 2.70337 62.6451 2.65351 64.1596 3.3513L64.7521 0.57746C63.9384 0.283171 62.8912 0 61.5886 0C58.2452 0 55.8933 1.77587 55.8745 4.32082C55.8526 6.20328 57.5544 7.25242 58.8343 7.87942C60.1525 8.51966 60.5946 8.93118 60.5885 9.50341C60.5791 10.3806 59.5356 10.7689 58.5656 10.7832C56.8646 10.8102 55.8786 10.3235 55.092 9.9571L54.4781 12.8228C55.2694 13.1855 56.7278 13.5005 58.2383 13.5165C61.7927 13.5165 64.1174 11.7611 64.1279 9.04334V9.04317ZM72.9565 13.3113H76.0837L73.3517 0.238701H70.4665C69.8158 0.238701 69.2689 0.616372 69.0263 1.19694L63.9515 13.3113H67.503L68.2075 11.3586H72.5466L72.9567 13.3113H72.9565ZM69.1815 8.67973L70.9622 3.7705L71.9852 8.67973H69.1813H69.1815ZM59.2819 16.9097H57.9076V18.1887H59.4447V18.5732H57.4446V15.0251H59.3659V15.4096H57.9076V16.5307H59.2817V16.91L59.2819 16.9097ZM60.1548 14.8356H60.6178V18.5731H60.1548V14.8356ZM61.7861 17.3833C61.7966 18.01 62.1916 18.2678 62.6598 18.2678C62.9917 18.2678 63.1969 18.2099 63.3657 18.1364L63.4497 18.4681C63.2865 18.5417 63.0024 18.6311 62.5967 18.6311C61.8126 18.6311 61.3442 18.1101 61.3442 17.3413C61.3442 16.5729 61.7966 15.9725 62.539 15.9725C63.3761 15.9725 63.5919 16.6993 63.5919 17.1677C63.5919 17.2623 63.5865 17.3307 63.5759 17.3835H61.7861V17.3833ZM63.1443 17.0518C63.1497 16.7624 63.0233 16.3043 62.5021 16.3043C62.0283 16.3043 61.8282 16.7307 61.7912 17.0518H63.1443ZM66.1123 18.4836C65.9914 18.5417 65.7227 18.6313 65.3807 18.6313C64.6121 18.6313 64.112 18.1101 64.112 17.3308C64.112 16.5464 64.6488 15.9727 65.4806 15.9727C65.7543 15.9727 65.9964 16.0409 66.1228 16.1095L66.0178 16.4622C65.9068 16.4043 65.7332 16.3409 65.4806 16.3409C64.8961 16.3409 64.5806 16.7779 64.5806 17.3047C64.5806 17.8941 64.9596 18.2574 65.4649 18.2574C65.7281 18.2574 65.9018 18.1943 66.0334 18.1364L66.1123 18.4836ZM67.4118 15.4145V16.0252H68.0749V16.3777H67.4118V17.7518C67.4118 18.068 67.5014 18.2467 67.7592 18.2467C67.8854 18.2467 67.9593 18.2364 68.0278 18.215L68.0489 18.5682C67.9593 18.5996 67.8173 18.6311 67.6382 18.6311C67.4223 18.6311 67.2485 18.5574 67.1381 18.4365C67.0117 18.2941 66.9591 18.068 66.9591 17.7679V16.3777H66.5641V16.0252H66.9591V15.5515L67.412 15.4147L67.4118 15.4145ZM68.7219 16.8202C68.7219 16.5201 68.7163 16.2622 68.7008 16.0252H69.1062L69.1275 16.5304H69.1429C69.2589 16.1885 69.5429 15.9725 69.8534 15.9725C69.901 15.9725 69.9379 15.9779 69.9801 15.983V16.4202C69.9327 16.4094 69.8855 16.4094 69.8219 16.4094C69.4959 16.4094 69.2639 16.6515 69.2009 16.9993C69.19 17.0707 69.1847 17.1428 69.1851 17.2151V18.5734H68.7219V16.8202ZM72.8274 17.278C72.8274 18.2204 72.1691 18.6311 71.5587 18.6311C70.8741 18.6311 70.3374 18.1256 70.3374 17.3204C70.3374 16.4727 70.9006 15.9727 71.6008 15.9727C72.3325 15.9727 72.8274 16.5041 72.8274 17.2782V17.278ZM70.811 17.3045C70.811 17.8625 71.1269 18.2838 71.5796 18.2838C72.022 18.2838 72.3534 17.8676 72.3534 17.2939C72.3534 16.8623 72.1376 16.3198 71.59 16.3198C71.0481 16.3198 70.811 16.8255 70.811 17.3045ZM73.5373 16.7148C73.5373 16.4465 73.5317 16.2358 73.516 16.0253H73.9267L73.953 16.4465H73.9635C74.0899 16.2094 74.3846 15.9727 74.8058 15.9727C75.1583 15.9727 75.706 16.1833 75.706 17.0568V18.5732H75.2428V17.1044C75.2428 16.694 75.0901 16.3515 74.6533 16.3515C74.3531 16.3515 74.116 16.5675 74.0322 16.8253C74.0109 16.8834 74.0004 16.9622 74.0004 17.0413V18.5732H73.5373V16.7148Z" fill="#1A1F71"/>
<path d="M4.36938 18.59V17.3535C4.36938 16.8794 4.08078 16.5703 3.5861 16.5703C3.33881 16.5703 3.07087 16.6527 2.88535 16.9207C2.74115 16.694 2.53507 16.5703 2.22591 16.5703C2.01974 16.5703 1.81376 16.6321 1.64881 16.8588V16.6115H1.216V18.59H1.64881V17.4977C1.64881 17.1474 1.83432 16.9825 2.12292 16.9825C2.41133 16.9825 2.55573 17.168 2.55573 17.4977V18.59H2.98853V17.4977C2.98853 17.1474 3.19451 16.9825 3.46246 16.9825C3.75106 16.9825 3.89526 17.168 3.89526 17.4977V18.59H4.36938ZM10.7789 16.6115H10.0783V16.0139H9.64547V16.6115H9.25388V17.003H9.64538V17.9099C9.64538 18.3634 9.83089 18.6313 10.3256 18.6313C10.5111 18.6313 10.7171 18.5695 10.8615 18.4871L10.7377 18.116C10.6141 18.1985 10.4699 18.2191 10.3668 18.2191C10.1607 18.2191 10.0783 18.0955 10.0783 17.8893V17.003H10.7789V16.6115ZM14.4475 16.5702C14.2002 16.5702 14.0354 16.694 13.9323 16.8588V16.6115H13.4995V18.59H13.9323V17.4771C13.9323 17.1474 14.0765 16.9619 14.3445 16.9619C14.4269 16.9619 14.53 16.9826 14.6124 17.0031L14.736 16.591C14.6536 16.5703 14.53 16.5703 14.4475 16.5703V16.5702ZM8.9035 16.7764C8.69733 16.6321 8.40883 16.5703 8.09967 16.5703C7.60509 16.5703 7.27537 16.8176 7.27537 17.2092C7.27537 17.539 7.52266 17.7244 7.95546 17.7863L8.16154 17.807C8.38827 17.8481 8.51191 17.9099 8.51191 18.013C8.51191 18.1572 8.34705 18.2603 8.05845 18.2603C7.76995 18.2603 7.54322 18.1572 7.39892 18.0542L7.19284 18.384C7.41957 18.5488 7.72873 18.6313 8.0378 18.6313C8.6149 18.6313 8.94472 18.3634 8.94472 17.9924C8.94472 17.642 8.67677 17.4565 8.26453 17.3947L8.05845 17.3741C7.87294 17.3534 7.72873 17.3123 7.72873 17.1886C7.72873 17.0443 7.87294 16.9619 8.09967 16.9619C8.34705 16.9619 8.59434 17.0649 8.71799 17.1268L8.9035 16.7764ZM20.4038 16.5703C20.1564 16.5703 19.9916 16.694 19.8885 16.8588V16.6115H19.4557V18.59H19.8885V17.4771C19.8885 17.1474 20.0328 16.9619 20.3006 16.9619C20.3832 16.9619 20.4862 16.9826 20.5687 17.0031L20.6923 16.591C20.6099 16.5703 20.4862 16.5703 20.4038 16.5703ZM14.8803 17.6008C14.8803 18.1985 15.2925 18.6313 15.9315 18.6313C16.22 18.6313 16.4261 18.5695 16.6321 18.4046L16.4261 18.0542C16.2612 18.1779 16.0963 18.2397 15.9108 18.2397C15.5604 18.2397 15.3131 17.9924 15.3131 17.6008C15.3131 17.2299 15.5604 16.9825 15.9108 16.9619C16.0963 16.9619 16.2612 17.0237 16.4261 17.1474L16.6321 16.797C16.4261 16.6321 16.22 16.5703 15.9315 16.5703C15.2925 16.5703 14.8803 17.0031 14.8803 17.6008ZM18.8787 17.6008V16.6115H18.4459V16.8588C18.3016 16.6734 18.0955 16.5703 17.8276 16.5703C17.2711 16.5703 16.8383 17.0031 16.8383 17.6008C16.8383 18.1985 17.2711 18.6313 17.8276 18.6313C18.1161 18.6313 18.3222 18.5283 18.4459 18.3428V18.59H18.8787V17.6008ZM17.2917 17.6008C17.2917 17.2504 17.5184 16.9619 17.8893 16.9619C18.2397 16.9619 18.4871 17.2299 18.4871 17.6008C18.4871 17.9512 18.2397 18.2397 17.8893 18.2397C17.5184 18.219 17.2917 17.9512 17.2917 17.6008ZM12.1187 16.5703C11.5415 16.5703 11.1293 16.9825 11.1293 17.6008C11.1293 18.2191 11.5415 18.6313 12.1392 18.6313C12.4277 18.6313 12.7163 18.5488 12.943 18.3634L12.7369 18.0542C12.572 18.1779 12.3659 18.2603 12.1599 18.2603C11.8919 18.2603 11.624 18.1367 11.5621 17.7862H13.0255V17.6214C13.0461 16.9825 12.6751 16.5703 12.1186 16.5703H12.1187ZM12.1187 16.9413C12.3865 16.9413 12.5721 17.1062 12.6132 17.4154H11.5828C11.624 17.1474 11.8095 16.9413 12.1187 16.9413ZM22.8564 17.6008V15.8284H22.4235V16.8588C22.2792 16.6734 22.0732 16.5703 21.8052 16.5703C21.2488 16.5703 20.816 17.0031 20.816 17.6008C20.816 18.1985 21.2488 18.6313 21.8052 18.6313C22.0938 18.6313 22.2999 18.5283 22.4235 18.3428V18.59H22.8564V17.6008ZM21.2694 17.6008C21.2694 17.2504 21.4961 16.9619 21.8671 16.9619C22.2175 16.9619 22.4648 17.2299 22.4648 17.6008C22.4648 17.9512 22.2175 18.2397 21.8671 18.2397C21.4961 18.219 21.2694 17.9512 21.2694 17.6008ZM6.80125 17.6008V16.6115H6.36845V16.8588C6.22415 16.6734 6.01807 16.5703 5.75013 16.5703C5.19368 16.5703 4.76087 17.0031 4.76087 17.6008C4.76087 18.1985 5.19368 18.6313 5.75013 18.6313C6.03873 18.6313 6.2448 18.5283 6.36845 18.3428V18.59H6.80125V17.6008ZM5.19368 17.6008C5.19368 17.2504 5.42041 16.9619 5.79134 16.9619C6.14172 16.9619 6.3891 17.2299 6.3891 17.6008C6.3891 17.9512 6.14172 18.2397 5.79134 18.2397C5.42041 18.219 5.19368 17.9512 5.19368 17.6008Z" fill="black"/>
<path d="M8.75909 1.58693H15.2512V13.2521H8.75909V1.58693Z" fill="#FF5F00"/>
<path d="M9.17143 7.41955C9.17143 5.04945 10.2843 2.94721 11.9949 1.58692C10.7378 0.597665 9.15087 0 7.41965 0C3.31814 0 0 3.31814 0 7.41955C0 11.5209 3.31814 14.8391 7.41956 14.8391C9.15078 14.8391 10.7377 14.2414 11.9949 13.2521C10.2843 11.9125 9.17143 9.78966 9.17143 7.41955Z" fill="#EB001B"/>
<path d="M24.0103 7.41955C24.0103 11.5209 20.6921 14.8391 16.5907 14.8391C14.8595 14.8391 13.2726 14.2414 12.0154 13.2521C13.7466 11.8919 14.8389 9.78966 14.8389 7.41955C14.8389 5.04945 13.7259 2.94721 12.0154 1.58692C13.2725 0.597665 14.8595 0 16.5907 0C20.6921 0 24.0104 3.33879 24.0104 7.41955H24.0103Z" fill="#F79E1B"/>
<path d="M98.6648 11.1628C98.6648 10.9142 98.5583 10.7779 98.3976 10.6807C98.234 10.587 98.0366 10.5742 97.7664 10.5742H96.5688V12.7634H97.0934V11.9663H97.6546C97.8392 11.9663 97.9551 11.9849 98.0244 12.0635C98.1181 12.1637 98.1065 12.3576 98.1065 12.4915V12.7617H98.6159V12.3308C98.6159 12.1369 98.6043 12.0397 98.5344 11.9302C98.4659 11.8481 98.3769 11.7854 98.2765 11.7485L98.291 11.7421C98.4337 11.688 98.6643 11.5116 98.6643 11.1628H98.6648ZM97.9883 11.4778L97.9667 11.4749C97.8969 11.5174 97.8153 11.5209 97.7088 11.5209H97.0817V11.0324H97.7216C97.8153 11.0324 97.9062 11.0324 97.9795 11.072C98.0161 11.0898 98.0465 11.1181 98.0669 11.1532C98.0873 11.1884 98.0969 11.2288 98.0942 11.2694C98.0942 11.3631 98.0576 11.4353 97.9912 11.4784L97.9883 11.4778ZM101.988 12.2941H100.982V12.7617H101.995C102.519 12.7617 102.81 12.5456 102.81 12.0764C102.81 11.8574 102.759 11.727 102.665 11.6245C102.547 11.5215 102.358 11.4726 102.098 11.4638L101.807 11.4516C101.725 11.4516 101.667 11.4516 101.607 11.4277C101.572 11.4169 101.542 11.395 101.521 11.3655C101.5 11.3359 101.49 11.3003 101.491 11.2641C101.491 11.1942 101.503 11.1366 101.561 11.1034C101.626 11.0673 101.699 11.0503 101.773 11.0545H102.725V10.5881H101.679C101.134 10.5881 100.936 10.9276 100.936 11.2402C100.936 11.9407 101.537 11.904 102.028 11.9162C102.107 11.9162 102.168 11.9279 102.201 11.9611C102.238 11.9861 102.264 12.0432 102.264 12.1008C102.264 12.1614 102.237 12.219 102.204 12.2405C102.159 12.2825 102.089 12.2947 101.989 12.2947L101.988 12.2941ZM86.231 0V7.83935L86.8592 6.38083H88.2176L88.3929 6.74182V6.38083H89.9789L90.3277 7.1721L90.6677 6.38723H95.7169C95.9446 6.38723 96.1501 6.43206 96.3021 6.5718V6.39247H97.6907V6.5718C97.9266 6.43847 98.2212 6.39247 98.5577 6.39247H100.58L100.768 6.75346V6.39247H102.257L102.454 6.75346V6.38956H103.897V9.45625H102.433L102.154 8.9887V9.44344H100.325L100.127 8.95493H99.6727L99.4637 9.43063H98.5234C98.1501 9.43063 97.8712 9.35203 97.6832 9.24606V9.43063H95.4386V8.74591C95.4386 8.65217 95.4177 8.65217 95.36 8.63936H95.2779V9.44285H90.9384V9.07313L90.7748 9.44285H89.8712L89.7134 9.07313V9.43354H87.9638L87.7664 8.94853H87.3146L87.1183 9.43354H86.2292V18.6313H104.694V13.1122C104.485 13.2176 104.218 13.2513 103.939 13.2513H102.602V13.0539C102.438 13.1815 102.159 13.2513 101.892 13.2513H97.6494V12.5544C97.6494 12.4606 97.6337 12.4606 97.5557 12.4606H97.498V13.2548H96.1001V12.4274C95.8695 12.534 95.5993 12.5421 95.3781 12.534H95.2145V13.2438H93.523L93.1015 12.764L92.6584 13.2315H89.9108V10.1806H92.7131L93.116 10.6481L93.5469 10.1806H95.4177C95.636 10.1806 95.9906 10.2056 96.1484 10.357V10.1689H97.8375C97.9953 10.1689 98.3382 10.2056 98.5408 10.3442V10.1596H101.073V10.3442C101.201 10.2167 101.471 10.1596 101.698 10.1596H103.165V10.3442C103.317 10.2295 103.526 10.1596 103.817 10.1596H104.73V0.000582245L86.231 0ZM102.655 11.6082C102.658 11.6146 102.658 11.6205 102.661 11.6239C102.671 11.6292 102.682 11.6292 102.689 11.6385L102.656 11.6111L102.655 11.6082ZM104.73 10.1561H104.781V10.587H104.73V10.1561ZM104.756 11.6688V11.6624C104.735 11.6443 104.723 11.6269 104.699 11.6082C104.584 11.49 104.395 11.4411 104.107 11.4353L103.825 11.4266C103.734 11.4266 103.677 11.4202 103.616 11.4027C103.582 11.3918 103.552 11.3699 103.531 11.3404C103.51 11.3108 103.499 11.2753 103.5 11.2391C103.5 11.1692 103.524 11.1139 103.57 11.0807C103.628 11.0475 103.685 11.0417 103.779 11.0417H104.729V10.587H103.734C103.197 10.587 102.989 10.9264 102.989 11.2391C102.989 11.936 103.595 11.9028 104.083 11.9151C104.165 11.9151 104.223 11.9238 104.256 11.9599C104.293 11.9849 104.317 12.042 104.317 12.0996C104.316 12.1267 104.31 12.1533 104.298 12.1775C104.286 12.2016 104.268 12.2228 104.247 12.2394C104.21 12.2813 104.14 12.2935 104.038 12.2935H103.036V12.7634H104.035C104.362 12.7634 104.605 12.6726 104.735 12.4845H104.756C104.826 12.378 104.863 12.251 104.863 12.0787C104.863 11.89 104.826 11.7753 104.756 11.6688ZM100.669 11.0295V10.5777H98.9338V12.7762H100.669V12.3215H99.4491V11.8819H100.639V11.4271H99.4491V11.033L100.669 11.0295ZM96.7207 6.81984H97.2512V9.00675H96.7207V6.81984ZM96.4203 7.40849L96.4139 7.41489C96.4139 7.1686 96.3137 7.02654 96.1501 6.92988C95.983 6.83265 95.7868 6.82333 95.523 6.82333H94.3283V9.01258H94.8523V8.20908H95.4107C95.5952 8.20908 95.714 8.23295 95.7897 8.30282C95.8846 8.40937 95.8718 8.59685 95.8718 8.72728V9.00384H96.3964V8.57589C96.3964 8.382 96.3842 8.28477 96.3108 8.1724C96.2426 8.09148 96.1551 8.02901 96.0564 7.99074C96.1685 7.94116 96.2634 7.8593 96.3288 7.7556C96.3942 7.6519 96.4273 7.53106 96.4238 7.40849H96.4203ZM95.7565 7.71533H95.7472C95.6744 7.75726 95.5952 7.76017 95.4893 7.76017H94.8494V7.27516H95.4893C95.583 7.27516 95.6739 7.27807 95.7437 7.31475C95.8136 7.34503 95.8619 7.41489 95.8619 7.50864C95.8619 7.60238 95.8252 7.67865 95.7565 7.71533ZM98.5915 7.27516H99.08V6.81111H98.5793C98.2212 6.81111 97.9574 6.8932 97.788 7.06671C97.5667 7.29961 97.5085 7.60296 97.5085 7.93076C97.5085 8.32844 97.6022 8.57647 97.788 8.76163C97.9667 8.9462 98.2881 9.00442 98.5397 9.00442H99.1469L99.3443 8.51592H100.423L100.626 9.00442H101.681V7.36657L102.671 9.00442H103.411V6.82042H102.877V8.3459L101.962 6.82333H101.17V8.84896L100.29 6.78723H99.5103L98.7795 8.51301H98.5461C98.4104 8.51301 98.2643 8.48914 98.1827 8.40646C98.0855 8.29176 98.0401 8.12756 98.0401 7.89408C98.0401 7.67283 98.1006 7.49641 98.1886 7.40558C98.2916 7.29903 98.4011 7.27516 98.5892 7.27516H98.5915ZM99.8864 7.19364L100.244 8.0606V8.06352H99.5225L99.8864 7.19364ZM88.0779 8.51534L88.2753 9.00384H89.3367V7.29379L90.0919 9.00384H90.5437L91.2983 7.29379L91.3105 9.00384H91.8468V6.82333H90.9798L90.355 8.29991L89.6732 6.82042H88.8272V8.88856L87.9416 6.82042H87.1684L86.2409 9.00442H86.7981L86.9984 8.51941H88.0785L88.0779 8.51534ZM87.544 7.19364L87.902 8.0606L87.8991 8.06352H87.1894L87.544 7.19364ZM95.4345 10.5742H93.7734L93.112 11.2897L92.4721 10.5742H90.383V12.7634H92.4418L93.1056 12.0391L93.746 12.7611H94.7551V12.0327H95.4072C95.8712 12.0327 96.3137 11.9052 96.3137 11.2991L96.3108 11.2961C96.3108 10.69 95.8474 10.5742 95.4345 10.5742ZM92.1868 12.3063H90.9041V11.8726H92.0436V11.4271H90.9041V11.033H92.2077L92.7783 11.6694L92.1839 12.3092L92.1868 12.3063ZM94.2363 12.5643L93.4357 11.6723L94.2363 10.8146V12.5643ZM95.4404 11.5873H94.7551V11.0289H95.4404C95.6284 11.0289 95.7682 11.1052 95.7682 11.2961C95.7682 11.4871 95.6535 11.5873 95.4404 11.5873ZM93.9702 7.27516V6.82042H92.2322V9.00734H93.9702V8.55551H92.7504V8.11825H93.9364V7.66934H92.7504V7.27516H93.9702Z" fill="#434343"/>
<path d="M138.42 14.8754C138.42 16.9455 136.735 18.6313 134.664 18.6313H114.229V3.75585C114.229 1.68572 115.915 0 117.985 0H138.42V14.8754Z" fill="white"/>
<path d="M131.766 11.0604H133.319C133.363 11.0604 133.467 11.0457 133.511 11.0457C133.807 10.9865 134.058 10.7203 134.058 10.3506C134.058 9.99581 133.807 9.72962 133.511 9.65572C133.467 9.64088 133.378 9.64088 133.319 9.64088H131.766V11.0604H131.766Z" fill="url(#paint0_linear)"/>
<path d="M133.141 1.25681C131.663 1.25681 130.45 2.45464 130.45 3.94806V6.74279H134.25C134.339 6.74279 134.442 6.74279 134.516 6.75753C135.374 6.80194 136.01 7.24551 136.01 8.01433C136.01 8.62062 135.581 9.13818 134.783 9.24174V9.27123C135.655 9.33038 136.32 9.81836 136.32 10.5724C136.32 11.3858 135.581 11.9181 134.605 11.9181H130.435V17.3892H134.383C135.862 17.3892 137.075 16.1915 137.075 14.698V1.25681H133.141Z" fill="url(#paint1_linear)"/>
<path d="M133.866 8.19189C133.866 7.83696 133.615 7.60034 133.319 7.55592C133.289 7.55592 133.215 7.54118 133.171 7.54118H131.766V8.8424H133.171C133.216 8.8424 133.304 8.8424 133.319 8.82766C133.615 8.78324 133.866 8.54672 133.866 8.19179L133.866 8.19189Z" fill="url(#paint2_linear)"/>
<path d="M118.266 1.25681C116.787 1.25681 115.575 2.45464 115.575 3.94806V10.5874C116.329 10.9569 117.112 11.1936 117.896 11.1936C118.828 11.1936 119.33 10.6317 119.33 9.86277V6.72795H121.637V9.84794C121.637 11.0604 120.883 12.0512 118.325 12.0512C116.772 12.0512 115.56 11.711 115.56 11.711V17.3744H119.508C120.987 17.3744 122.199 16.1766 122.199 14.6831V1.25699H118.266L118.266 1.25681Z" fill="url(#paint3_linear)"/>
<path d="M125.704 1.25681C124.225 1.25681 123.012 2.45464 123.012 3.94806V7.46729C123.693 6.89058 124.876 6.52091 126.783 6.60964C127.803 6.65406 128.898 6.93499 128.898 6.93499V8.07358C128.35 7.79264 127.7 7.54119 126.857 7.48203C125.408 7.37856 124.536 8.08832 124.536 9.33038C124.536 10.5873 125.408 11.297 126.857 11.1787C127.7 11.1196 128.351 10.8535 128.898 10.5873V11.7259C128.898 11.7259 127.818 12.0068 126.783 12.0512C124.876 12.1399 123.693 11.7702 123.013 11.1936V17.404H126.961C128.439 17.404 129.652 16.2062 129.652 14.7127V1.25699H125.704V1.25681Z" fill="url(#paint4_linear)"/>
<path d="M259.419 9.10237V14.5636H257.686V1.07677H262.281C262.83 1.06533 263.375 1.16261 263.886 1.36301C264.396 1.5634 264.862 1.86294 265.256 2.24435C265.655 2.60259 265.972 3.04194 266.186 3.53287C266.401 4.0238 266.507 4.55494 266.499 5.09058C266.511 5.62911 266.406 6.16375 266.191 6.65784C265.977 7.15192 265.658 7.59378 265.256 7.95313C264.453 8.71929 263.461 9.102 262.281 9.10127H259.419V9.10237ZM259.419 2.73727V7.44517H262.324C262.643 7.45459 262.96 7.39744 263.255 7.27735C263.55 7.15726 263.817 6.97689 264.038 6.74778C264.259 6.53356 264.434 6.27734 264.553 5.99427C264.673 5.71121 264.735 5.40704 264.735 5.09975C264.735 4.79246 264.673 4.48829 264.553 4.20522C264.434 3.92215 264.259 3.66594 264.038 3.45172C263.82 3.21776 263.554 3.03295 263.258 2.90956C262.963 2.78617 262.644 2.727 262.324 2.73599H259.419V2.73709V2.73727ZM270.492 5.03465C271.772 5.03465 272.783 5.37683 273.524 6.0612C274.265 6.74576 274.636 7.68411 274.635 8.87644V14.5636H272.978V13.283H272.902C272.185 14.3375 271.231 14.8649 270.04 14.8649C269.023 14.8649 268.173 14.5636 267.488 13.961C267.16 13.6844 266.897 13.338 266.72 12.9471C266.542 12.5562 266.454 12.1305 266.462 11.7012C266.462 10.7464 266.823 9.98699 267.544 9.4231C268.266 8.85921 269.23 8.57644 270.435 8.57515C271.464 8.57515 272.311 8.7633 272.977 9.13996V8.74386C272.979 8.45122 272.915 8.16181 272.792 7.89662C272.668 7.63143 272.487 7.3971 272.261 7.21063C271.803 6.79722 271.206 6.57165 270.589 6.57888C269.621 6.57888 268.855 6.98709 268.291 7.80349L266.765 6.84258C267.605 5.63723 268.847 5.03465 270.492 5.03465ZM268.25 11.739C268.249 11.9594 268.301 12.1769 268.401 12.3734C268.501 12.5699 268.646 12.7397 268.825 12.8686C269.208 13.1701 269.684 13.3298 270.171 13.3206C270.902 13.3194 271.603 13.0285 272.12 12.5116C272.694 11.9713 272.981 11.3374 272.981 10.6099C272.441 10.1795 271.687 9.96443 270.721 9.96443C270.017 9.96443 269.43 10.1341 268.961 10.4733C268.486 10.8177 268.25 11.2362 268.25 11.7388V11.739ZM284.148 5.33594L278.363 18.6313H276.574L278.721 13.9793L274.917 5.33594H276.8L279.549 11.9647H279.587L282.261 5.33594H284.148Z" fill="#5F6368"/>
<path d="M252.417 7.92508C252.418 7.39695 252.373 6.8701 252.284 6.34967H244.977V9.3338H249.162C249.076 9.81042 248.895 10.2648 248.629 10.6694C248.363 11.0741 248.018 11.4207 247.614 11.6884V13.6252H250.112C251.574 12.2769 252.417 10.2828 252.417 7.92508H252.417Z" fill="#4285F4"/>
<path d="M244.977 15.4966C247.068 15.4966 248.829 14.81 250.112 13.6263L247.615 11.6893C246.919 12.1606 246.024 12.4298 244.977 12.4298C242.956 12.4298 241.241 11.0673 240.627 9.23163H238.055V11.2277C238.7 12.5109 239.688 13.5897 240.911 14.3435C242.133 15.0973 243.541 15.4965 244.977 15.4966H244.977Z" fill="#34A853"/>
<path d="M240.627 9.23147C240.303 8.26946 240.303 7.22768 240.627 6.26568V4.26959H238.054C237.512 5.3491 237.229 6.54051 237.229 7.74867C237.229 8.95682 237.512 10.1482 238.054 11.2277L240.627 9.23147H240.627Z" fill="#FBBC04"/>
<path d="M244.977 3.06753C246.082 3.0495 247.15 3.467 247.949 4.22979L250.161 2.01823C248.758 0.701067 246.901 -0.0220431 244.977 0.000512224C243.541 0.00059581 242.133 0.39985 240.91 1.1537C239.688 1.90755 238.699 2.98632 238.054 4.26958L240.627 6.26567C241.241 4.43004 242.956 3.06753 244.977 3.06753H244.977Z" fill="#EA4335"/>
<path d="M155.977 9.40697C155.977 9.91448 155.574 10.3007 155.063 10.3007C154.68 10.3007 154.397 10.0844 154.397 9.67719C154.397 9.16968 154.792 8.76247 155.3 8.76247C155.687 8.76247 155.978 8.99976 155.978 9.40697H155.977ZM151.577 7.39039H151.382C151.32 7.39039 151.257 7.43231 151.249 7.50267L151.07 8.61351L151.411 8.60079C151.869 8.60079 152.222 8.53866 152.305 8.01018C152.401 7.45252 152.048 7.39039 151.577 7.39039ZM163.388 7.39039H163.201C163.126 7.39039 163.076 7.43231 163.068 7.50267L162.893 8.61351L163.226 8.60079C163.766 8.60079 164.14 8.47578 164.14 7.85224C164.136 7.41135 163.741 7.39039 163.387 7.39039H163.388ZM172.183 1.99637V16.6349C172.183 17.1643 171.973 17.672 171.599 18.0464C171.224 18.4207 170.716 18.6311 170.187 18.6313H150.226C149.696 18.6311 149.189 18.4207 148.814 18.0464C148.44 17.672 148.229 17.1643 148.229 16.6349V1.99637C148.229 1.46696 148.44 0.959292 148.814 0.584943C149.189 0.210593 149.696 0.000198392 150.226 0H170.187C170.716 0.000198392 171.224 0.210593 171.599 0.584943C171.973 0.959292 172.183 1.46696 172.183 1.99637ZM153.566 7.62693C153.566 6.75338 152.892 6.46219 152.122 6.46219H150.459C150.405 6.4626 150.354 6.48273 150.314 6.51874C150.274 6.55475 150.249 6.60415 150.243 6.65756L149.561 10.9033C149.548 10.9864 149.611 11.0695 149.694 11.0695H150.485C150.597 11.0695 150.701 10.949 150.714 10.8322L150.901 9.72585C150.943 9.42643 151.449 9.53048 151.649 9.53048C152.839 9.53048 153.566 8.82385 153.566 7.62618L153.566 7.62693ZM157.067 7.99297H156.277C156.119 7.99297 156.111 8.22202 156.102 8.3343C155.861 7.98099 155.512 7.91811 155.117 7.91811C154.098 7.91811 153.32 8.81188 153.32 9.79771C153.32 10.6084 153.828 11.1369 154.638 11.1369C155.013 11.1369 155.478 10.9333 155.74 10.6421C155.716 10.7262 155.702 10.8129 155.698 10.9003C155.698 10.9961 155.74 11.0665 155.831 11.0665H156.547C156.659 11.0665 156.755 10.946 156.776 10.8292L157.201 8.1554C157.213 8.07606 157.15 7.99297 157.067 7.99297ZM158.752 12.0643L161.401 8.21304C161.422 8.19208 161.422 8.17112 161.422 8.14268C161.422 8.07231 161.359 7.99746 161.288 7.99746H160.49C160.453 7.99892 160.416 8.0091 160.384 8.02717C160.351 8.04525 160.323 8.07071 160.303 8.10151L159.201 9.72361L158.743 8.16438C158.726 8.11696 158.695 8.07577 158.654 8.04615C158.613 8.01653 158.565 7.99983 158.514 7.99821H157.737C157.665 7.99821 157.603 8.07306 157.603 8.14342C157.603 8.19358 158.414 10.5058 158.485 10.7259C158.373 10.8839 157.632 11.9153 157.632 12.0404C157.632 12.1152 157.695 12.1736 157.766 12.1736H158.564C158.602 12.1711 158.638 12.1601 158.671 12.1415C158.703 12.1228 158.731 12.0969 158.752 12.0658V12.0643ZM165.376 7.62693C165.376 6.75338 164.702 6.46219 163.933 6.46219H162.282C162.226 6.46175 162.173 6.48126 162.131 6.51715C162.089 6.55303 162.061 6.60289 162.053 6.65756L161.379 10.8996C161.371 10.9827 161.433 11.0657 161.512 11.0657H162.365C162.448 11.0657 162.51 11.0036 162.531 10.9325L162.718 9.7266C162.76 9.42718 163.268 9.53123 163.467 9.53123C164.648 9.53123 165.375 8.8246 165.375 7.62693H165.376ZM168.877 7.99297H168.087C167.929 7.99297 167.92 8.22202 167.908 8.3343C167.679 7.98099 167.325 7.91811 166.922 7.91811C165.903 7.91811 165.125 8.81188 165.125 9.79771C165.125 10.6084 165.633 11.1369 166.444 11.1369C166.831 11.1369 167.296 10.9333 167.545 10.6421C167.533 10.7042 167.504 10.8374 167.504 10.9003C167.504 10.9961 167.545 11.0665 167.637 11.0665H168.356C168.468 11.0665 168.564 10.946 168.585 10.8292L169.01 8.1554C169.022 8.07606 168.959 7.99297 168.876 7.99297H168.877ZM170.853 6.60816C170.853 6.52507 170.79 6.46294 170.719 6.46294H169.95C169.888 6.46294 169.825 6.51309 169.817 6.57522L169.143 10.9003L169.131 10.9213C169.131 10.9961 169.193 11.0665 169.276 11.0665H169.963C170.067 11.0665 170.171 10.946 170.179 10.8292L170.853 6.62088V6.60816ZM167.11 8.76247C166.602 8.76247 166.207 9.16594 166.207 9.67719C166.207 10.0807 166.498 10.3007 166.881 10.3007C167.38 10.3007 167.783 9.91823 167.783 9.40697C167.788 8.99976 167.497 8.76247 167.11 8.76247Z" fill="#434343"/>
<path d="M190.426 2.40218C189.899 3.03043 189.059 3.52825 188.22 3.45533C188.109 2.60833 188.527 1.70102 189.01 1.13869C189.536 0.497826 190.455 0.0378628 191.201 0C191.29 0.884867 190.945 1.75431 190.427 2.40218H190.426ZM191.193 3.62221C189.974 3.54788 188.928 4.32197 188.351 4.32197C187.76 4.32197 186.875 3.65867 185.912 3.6811C184.662 3.69653 183.494 4.41031 182.859 5.55882C181.537 7.84321 182.515 11.2256 183.786 13.0879C184.407 14.0078 185.15 15.0161 186.131 14.9881C187.058 14.9502 187.431 14.3752 188.548 14.3752C189.68 14.3752 190.001 14.9881 190.988 14.9656C192.002 14.9502 192.644 14.0457 193.266 13.1258C193.974 12.081 194.266 11.0573 194.281 11.0069C194.266 10.9844 192.316 10.2328 192.302 7.96801C192.287 6.06786 193.835 5.16336 193.901 5.11148C193.032 3.7975 191.659 3.65867 191.192 3.62361L191.193 3.62221ZM198.227 1.05034V14.8703H200.352V10.1458H203.29C205.969 10.1458 207.854 8.28354 207.854 5.59528C207.854 2.90141 206.007 1.05174 203.362 1.05174L198.227 1.05034ZM200.352 2.86215H202.799C204.639 2.86215 205.692 3.85499 205.692 5.60089C205.692 7.34678 204.639 8.34804 202.785 8.34804H200.352V2.86215ZM211.723 14.9726C213.06 14.9726 214.294 14.2939 214.857 13.2113H214.902V14.8703H216.865V7.98905C216.865 6.00336 215.289 4.71181 212.856 4.71181C210.607 4.71181 208.941 6.01878 208.883 7.80815H210.789C210.95 6.95413 211.725 6.39881 212.799 6.39881C214.099 6.39881 214.822 7.01163 214.822 8.13769V8.89635L212.179 9.05762C209.709 9.21047 208.38 10.2258 208.38 12.0011C208.38 13.7905 209.754 14.974 211.725 14.974L211.723 14.9726ZM212.301 13.3361C211.168 13.3361 210.446 12.7878 210.446 11.9492C210.446 11.0798 211.14 10.5679 212.461 10.4866L214.821 10.3407V11.1218C214.821 12.4162 213.733 13.3361 212.292 13.3361H212.301ZM219.488 18.6313C221.553 18.6313 222.527 17.8278 223.374 15.4102L227.098 4.84924H224.944L222.447 13.0066H222.402L219.904 4.84924H217.684L221.279 14.9067L221.088 15.5195C220.758 16.5502 220.234 16.9499 219.298 16.9499C219.13 16.9499 218.809 16.9289 218.677 16.9148V18.5738C218.801 18.6089 219.328 18.6243 219.481 18.6243L219.488 18.6313Z" fill="#434343"/>
<path d="M294.229 14.6981C294.342 14.4932 294.484 14.459 294.705 14.5761C295.215 14.8493 295.715 15.1322 296.235 15.3908C298.224 16.3776 300.32 17.1354 302.482 17.6494C303.504 17.8948 304.538 18.0869 305.581 18.225C307.124 18.4314 308.682 18.5163 310.239 18.4787C311.092 18.4592 311.945 18.3909 312.794 18.2933C315.548 17.9739 318.244 17.2711 320.801 16.2054C320.943 16.1469 321.09 16.1079 321.247 16.1469C321.576 16.2347 321.689 16.5859 321.448 16.825C321.302 16.9586 321.145 17.0794 320.978 17.186C319.472 18.2153 317.83 18.9616 316.094 19.5226C314.892 19.908 313.66 20.1952 312.411 20.3812C311.547 20.5128 310.676 20.591 309.803 20.6154C309.762 20.6178 309.721 20.6227 309.68 20.63H308.645C308.605 20.6227 308.564 20.6178 308.523 20.6154C308.346 20.6056 308.17 20.6007 307.998 20.5959C307.17 20.5585 306.345 20.4722 305.527 20.3373C304.184 20.1196 302.864 19.7782 301.584 19.3178C298.952 18.3734 296.528 16.9323 294.445 15.0737C294.357 14.9956 294.298 14.8883 294.229 14.7956V14.6981ZM301.977 2.00488L301.766 2.03415C301.092 2.11694 300.45 2.37058 299.903 2.77076C299.785 2.85369 299.677 2.9415 299.554 3.03419C299.544 3.0127 299.537 2.9896 299.535 2.96589C299.515 2.83418 299.496 2.69759 299.471 2.56588C299.437 2.34148 299.324 2.24391 299.098 2.24391H298.534C298.196 2.24391 298.132 2.30733 298.132 2.64393V12.8541C298.132 12.9029 298.132 12.9516 298.137 13.0004C298.147 13.1468 298.235 13.2395 298.378 13.2443C298.721 13.2492 299.069 13.2492 299.412 13.2443C299.554 13.2443 299.643 13.1468 299.657 13.0004C299.662 12.9516 299.662 12.9029 299.662 12.8541V9.32224C299.716 9.36614 299.746 9.39053 299.77 9.41493C300.648 10.1418 301.658 10.3808 302.761 10.1662C303.762 9.97104 304.458 9.36126 304.909 8.46367C305.252 7.78559 305.394 7.06361 305.414 6.31236C305.439 5.47818 305.355 4.65864 305.017 3.883C304.6 2.92687 303.909 2.29757 302.864 2.08293C302.707 2.04878 302.546 2.03415 302.384 2.00976C302.246 2.00488 302.114 2.00488 301.977 2.00488ZM299.652 4.04886C299.65 4.01694 299.656 3.98488 299.671 3.95639C299.686 3.9279 299.708 3.90415 299.736 3.88788C300.408 3.42445 301.148 3.18053 301.972 3.24395C302.702 3.29761 303.301 3.65372 303.614 4.50742C303.806 5.02939 303.855 5.57087 303.855 6.11723C303.855 6.62457 303.816 7.12215 303.659 7.60998C303.325 8.64904 302.56 9.04418 301.57 9.00027C300.883 8.971 300.285 8.70758 299.736 8.3222C299.708 8.30555 299.686 8.28173 299.671 8.25333C299.657 8.22494 299.65 8.19308 299.652 8.16122C299.657 7.47339 299.652 6.79043 299.652 6.1026C299.652 5.41477 299.657 4.73669 299.652 4.04886ZM309.739 2.00488C309.69 2.00976 309.641 2.01951 309.597 2.02439C309.119 2.04444 308.644 2.11144 308.18 2.2244C307.881 2.30245 307.591 2.40977 307.302 2.50734C307.125 2.56588 307.037 2.69271 307.042 2.88296C307.047 3.04394 307.037 3.20493 307.042 3.36591C307.047 3.60006 307.145 3.66348 307.375 3.60494C307.758 3.50738 308.14 3.40005 308.528 3.32688C309.131 3.21468 309.739 3.1659 310.352 3.25859C310.671 3.30737 310.97 3.40005 311.176 3.66836C311.357 3.90251 311.426 4.18057 311.436 4.46839C311.45 4.87328 311.445 5.27818 311.45 5.68307C311.449 5.70608 311.446 5.72894 311.44 5.75137C311.416 5.74649 311.396 5.75137 311.377 5.74649C310.862 5.62023 310.337 5.54023 309.808 5.50745C309.253 5.47818 308.704 5.51233 308.175 5.69771C307.542 5.91723 307.032 6.29773 306.733 6.91239C306.503 7.39046 306.468 7.89779 306.542 8.41001C306.64 9.09296 306.983 9.61981 307.591 9.95641C308.175 10.2784 308.807 10.3174 309.45 10.2198C310.19 10.1076 310.847 9.79543 311.426 9.32224C311.449 9.30098 311.476 9.28294 311.504 9.26858C311.534 9.45395 311.558 9.62957 311.592 9.80518C311.622 9.95641 311.715 10.054 311.857 10.0589C312.122 10.0637 312.392 10.0637 312.656 10.0589C312.718 10.0584 312.777 10.0342 312.821 9.99145C312.865 9.94869 312.89 9.89067 312.892 9.82958C312.896 9.78416 312.898 9.73857 312.897 9.69298V4.52205C312.899 4.31144 312.884 4.10099 312.853 3.89276C312.759 3.26346 312.49 2.74637 311.921 2.40977C311.592 2.21464 311.23 2.11708 310.852 2.06342C310.675 2.03903 310.499 2.02439 310.322 2C310.131 2.00488 309.935 2.00488 309.739 2.00488ZM311.455 8.23439C311.457 8.26308 311.451 8.29174 311.438 8.31745C311.425 8.34316 311.406 8.365 311.382 8.38074C310.832 8.77588 310.229 9.0393 309.548 9.1076C309.268 9.13687 308.989 9.12711 308.724 9.01979C308.578 8.96686 308.447 8.88052 308.342 8.76778C308.236 8.65504 308.159 8.51909 308.116 8.37098C308.019 8.06318 308.017 7.73338 308.111 7.4246C308.234 7.01971 308.523 6.79043 308.915 6.6636C309.309 6.54548 309.723 6.50896 310.131 6.55628C310.543 6.59042 310.945 6.66848 311.357 6.72214C311.436 6.73189 311.46 6.77092 311.46 6.84897C311.455 7.08313 311.46 7.3124 311.46 7.54656C311.46 7.78071 311.45 8.00511 311.455 8.23439ZM324.199 14.5468C324.15 14.3029 323.964 14.2102 323.753 14.1419C323.419 14.0374 323.073 13.9735 322.723 13.9517C322.081 13.8972 321.435 13.9283 320.801 14.0444C320.1 14.1761 319.433 14.4005 318.84 14.8054C318.769 14.8506 318.708 14.9085 318.658 14.9761C318.641 15.0053 318.63 15.0376 318.626 15.0712C318.622 15.1047 318.624 15.1388 318.634 15.1712C318.653 15.2444 318.737 15.2639 318.81 15.2591C318.846 15.2599 318.882 15.2582 318.918 15.2542C319.301 15.2152 319.678 15.1712 320.061 15.1322C320.62 15.0786 321.184 15.0444 321.743 15.0883C321.982 15.1081 322.218 15.1522 322.449 15.22C322.699 15.2883 322.812 15.4737 322.821 15.7274C322.841 16.1176 322.753 16.4933 322.65 16.864C322.449 17.6152 322.159 18.3421 321.875 19.0641C321.854 19.1113 321.838 19.1603 321.826 19.2104C321.801 19.3519 321.885 19.4446 322.027 19.4104C322.115 19.3908 322.196 19.3488 322.262 19.2885C322.484 19.0839 322.692 18.8656 322.885 18.6348C323.513 17.8348 323.881 16.9128 324.096 15.9225C324.136 15.7469 324.165 15.5664 324.199 15.3908V14.5468ZM317.722 8.53684C317.089 6.79531 316.457 5.05215 315.824 3.30737C315.726 3.02931 315.618 2.75613 315.515 2.48295C315.461 2.34148 315.358 2.24879 315.201 2.24879C314.829 2.24391 314.456 2.23903 314.078 2.24391C313.956 2.24391 313.897 2.34148 313.922 2.46343C313.945 2.56478 313.976 2.66424 314.015 2.76101C314.976 5.12695 315.942 7.4929 316.913 9.85885C316.996 10.0589 317.016 10.2296 316.923 10.4345C316.761 10.7906 316.633 11.1662 316.466 11.5223C316.319 11.8394 316.074 12.0784 315.721 12.1711C315.475 12.2351 315.219 12.2533 314.966 12.2248C314.843 12.215 314.721 12.1858 314.598 12.176C314.432 12.1663 314.348 12.2394 314.343 12.4102C314.338 12.5728 314.338 12.7338 314.343 12.8931C314.348 13.1614 314.441 13.2834 314.706 13.3273C314.979 13.3814 315.256 13.414 315.535 13.4248C316.373 13.4444 317.04 13.1078 317.472 12.3809C317.645 12.0939 317.796 11.7937 317.923 11.4833C319.085 8.56611 320.239 5.64567 321.385 2.72198C321.42 2.63561 321.447 2.54566 321.463 2.45368C321.483 2.31709 321.419 2.23903 321.282 2.23903C320.958 2.23416 320.63 2.23903 320.306 2.23903C320.224 2.2333 320.142 2.25516 320.073 2.30114C320.005 2.34711 319.954 2.41455 319.928 2.4927C319.904 2.561 319.874 2.62441 319.85 2.69271L318.143 7.57095C318.021 7.92218 317.893 8.27829 317.766 8.65392C317.746 8.60026 317.736 8.57099 317.722 8.53684Z" fill="#434343"/>
<defs>
<linearGradient id="paint0_linear" x1="130.448" y1="10.3524" x2="137.093" y2="10.3524" gradientUnits="userSpaceOnUse">
<stop stop-color="#007940"/>
<stop offset="0.2285" stop-color="#00873F"/>
<stop offset="0.7433" stop-color="#40A737"/>
<stop offset="1" stop-color="#5CB531"/>
</linearGradient>
<linearGradient id="paint1_linear" x1="130.447" y1="9.31656" x2="137.093" y2="9.31656" gradientUnits="userSpaceOnUse">
<stop stop-color="#007940"/>
<stop offset="0.2285" stop-color="#00873F"/>
<stop offset="0.7433" stop-color="#40A737"/>
<stop offset="1" stop-color="#5CB531"/>
</linearGradient>
<linearGradient id="paint2_linear" x1="130.448" y1="8.18994" x2="137.093" y2="8.18994" gradientUnits="userSpaceOnUse">
<stop stop-color="#007940"/>
<stop offset="0.2285" stop-color="#00873F"/>
<stop offset="0.7433" stop-color="#40A737"/>
<stop offset="1" stop-color="#5CB531"/>
</linearGradient>
<linearGradient id="paint3_linear" x1="115.572" y1="9.31656" x2="122.319" y2="9.31656" gradientUnits="userSpaceOnUse">
<stop stop-color="#1F286F"/>
<stop offset="0.4751" stop-color="#004E94"/>
<stop offset="0.8261" stop-color="#0066B1"/>
<stop offset="1" stop-color="#006FBC"/>
</linearGradient>
<linearGradient id="paint4_linear" x1="122.974" y1="9.3165" x2="129.528" y2="9.3165" gradientUnits="userSpaceOnUse">
<stop stop-color="#6C2C2F"/>
<stop offset="0.1735" stop-color="#882730"/>
<stop offset="0.5731" stop-color="#BE1833"/>
<stop offset="0.8585" stop-color="#DC0436"/>
<stop offset="1" stop-color="#E60039"/>
</linearGradient>
</defs>
</svg>
