<svg width="35" height="34" viewBox="0 0 35 34" fill="none" xmlns="http://www.w3.org/2000/svg">
<path d="M17.7367 0.234314C26.9665 0.234314 34.4877 7.73877 34.4877 16.9853C34.4877 26.2151 26.9665 33.7364 17.7367 33.7364C8.49011 33.7364 0.985657 26.2151 0.985657 16.9853C0.985657 7.73877 8.49011 0.234314 17.7367 0.234314ZM12.8119 13.6854C12.3261 13.1829 11.522 13.1829 11.0363 13.6686C10.5337 14.1712 10.5337 14.9585 11.0363 15.4442L16.8489 21.2903C17.0834 21.5249 17.4017 21.6589 17.7367 21.6589C18.0717 21.6589 18.39 21.5249 18.6245 21.2903L24.4371 15.4442C24.6883 15.2097 24.8056 14.8915 24.8056 14.5732C24.8056 14.2382 24.6883 13.9199 24.4371 13.6686C23.9346 13.1829 23.1473 13.1829 22.6615 13.6854L17.7367 18.6269L12.8119 13.6854Z" fill="#EB75BC"/>
</svg>
