<svg width="33" height="27" viewBox="0 0 33 27" fill="none" xmlns="http://www.w3.org/2000/svg">
<path d="M7.16952 13.4497V12.8444C7.16952 5.75389 11.2336 2.98686 11.2336 2.98686L8.72598 0.0468814C8.72598 0.0468814 0.770757 2.90039 0.770757 17.7732C0.770757 22.6155 2.84603 26.3337 7.77481 26.3337C11.493 26.3337 14.26 23.3937 14.26 19.8485C14.26 16.2167 11.493 13.3632 7.77481 13.3632C7.68834 13.3632 7.34246 13.3632 7.16952 13.4497ZM25.1552 13.4497V12.8444C25.1552 5.75389 29.2193 2.98686 29.2193 2.98686L26.7117 0.0468814C26.7117 0.0468814 18.7565 2.90039 18.7565 17.7732C18.7565 22.6155 20.8318 26.3337 25.7605 26.3337C29.3923 26.3337 32.2458 23.3937 32.2458 19.8485C32.2458 16.2167 29.3923 13.3632 25.7605 13.3632C25.5876 13.3632 25.3282 13.3632 25.1552 13.4497Z" fill="#525252"/>
</svg>
