<svg width="1440" height="878" viewBox="0 0 1440 878" fill="none" xmlns="http://www.w3.org/2000/svg">
<mask id="mask0" mask-type="alpha" maskUnits="userSpaceOnUse" x="-1" y="0" width="1441" height="878">
<rect x="-0.263428" y="0.480713" width="1440" height="877.494" fill="#C4C4C4"/>
</mask>
<g mask="url(#mask0)">
<g style="mix-blend-mode:overlay">
<path d="M1616.77 53.5956H1457.23L1501.71 53.5956C1471.36 40.474 1429.29 30.085 1372.25 24.0961C1237.2 9.91407 1127.09 103.439 998.185 166.284C885.034 197.38 584.162 315.957 425.456 194.256C207.329 -20.798 19.1148 103.978 -62.6085 132.718L-111.003 743.562C-111.003 800.149 41.0495 843.439 88.2992 851.588C222.848 874.793 413.384 772.123 583.371 716.444C811.459 641.735 1002.65 615.002 1176.89 707.924C1457.23 870.49 1444.71 752.862 1501.71 743.562L1457.23 959.623H1616.77V53.5956Z" fill="url(#paint0_linear)"/>
<path d="M1616.77 53.5956H1457.16V98.3527C1426.8 85.2311 1384.71 74.8421 1327.65 68.8532C1192.54 54.6712 1059.96 119.279 931.001 182.125C756.264 267.278 588.168 349.196 429.393 227.494C240.945 83.0471 81.4955 87.8614 -0.263428 116.602V777.782C27.4462 786.818 63.9301 795.462 111.2 803.611C245.808 826.816 412.859 772.123 582.92 716.444C811.108 641.735 1044.71 565.251 1212.63 672.801C1323.17 743.598 1400.14 757.642 1457.16 748.341V959.623H1616.77V53.5956Z" fill="url(#paint1_linear)"/>
<g style="mix-blend-mode:overlay">
<path d="M1616.77 53.5956H1457.16V98.3527C1426.8 85.2311 1384.71 74.8421 1327.65 68.8532C1192.54 54.6712 1059.96 119.279 931.001 182.125C756.264 267.278 588.168 349.196 429.393 227.494C240.945 83.0471 81.4955 87.8614 -0.263428 116.602V777.782C27.4462 786.818 63.9301 795.462 111.2 803.611C245.808 826.816 412.859 772.123 582.92 716.444C811.108 641.735 1044.71 565.251 1212.63 672.801C1323.17 743.598 1400.14 757.642 1457.16 748.341V959.623H1616.77V53.5956Z" fill="url(#paint2_linear)"/>
</g>
</g>
</g>
<defs>
<linearGradient id="paint0_linear" x1="808.608" y1="53.5955" x2="808.608" y2="959.623" gradientUnits="userSpaceOnUse">
<stop stop-color="white"/>
<stop offset="1" stop-color="white"/>
</linearGradient>
<linearGradient id="paint1_linear" x1="808.256" y1="53.5956" x2="808.256" y2="959.623" gradientUnits="userSpaceOnUse">
<stop stop-color="#6241BB"/>
<stop offset="1" stop-color="#0066B1"/>
</linearGradient>
<linearGradient id="paint2_linear" x1="808.256" y1="53.5956" x2="808.256" y2="959.623" gradientUnits="userSpaceOnUse">
<stop stop-color="#6241BB"/>
<stop offset="1" stop-color="#0066B1"/>
</linearGradient>
</defs>
</svg>
