<svg width="17" height="17" viewBox="0 0 17 17" fill="none" xmlns="http://www.w3.org/2000/svg">
<path fill-rule="evenodd" clip-rule="evenodd" d="M16.4399 8.73779C16.4399 10.8595 15.5971 12.8944 14.0968 14.3946C12.5965 15.8949 10.5617 16.7378 8.43994 16.7378C6.31821 16.7378 4.28338 15.8949 2.78309 14.3946C1.2828 12.8944 0.439941 10.8595 0.439941 8.73779C0.439941 6.61606 1.2828 4.58123 2.78309 3.08094C4.28338 1.58065 6.31821 0.737793 8.43994 0.737793C10.5617 0.737793 12.5965 1.58065 14.0968 3.08094C15.5971 4.58123 16.4399 6.61606 16.4399 8.73779ZM8.79394 11.3838C8.88783 11.4777 8.94057 11.605 8.94057 11.7378C8.94057 11.8706 8.88783 11.9979 8.79394 12.0918C8.70006 12.1857 8.57272 12.2384 8.43994 12.2384C8.30717 12.2384 8.17983 12.1857 8.08594 12.0918L5.08594 9.09179C5.03938 9.04535 5.00244 8.99017 4.97723 8.92943C4.95202 8.86868 4.93905 8.80356 4.93905 8.73779C4.93905 8.67203 4.95202 8.6069 4.97723 8.54616C5.00244 8.48541 5.03938 8.43024 5.08594 8.38379L8.08594 5.38379C8.13243 5.33731 8.18762 5.30043 8.24836 5.27527C8.3091 5.25011 8.3742 5.23716 8.43994 5.23716C8.50568 5.23716 8.57079 5.25011 8.63153 5.27527C8.69226 5.30043 8.74745 5.33731 8.79394 5.38379C8.84043 5.43028 8.87731 5.48547 8.90246 5.54621C8.92762 5.60695 8.94057 5.67205 8.94057 5.73779C8.94057 5.80354 8.92762 5.86864 8.90246 5.92938C8.87731 5.99012 8.84043 6.04531 8.79394 6.09179L6.64694 8.23779H11.4399C11.5725 8.23779 11.6997 8.29047 11.7935 8.38424C11.8873 8.47801 11.9399 8.60518 11.9399 8.73779C11.9399 8.8704 11.8873 8.99758 11.7935 9.09135C11.6997 9.18511 11.5725 9.23779 11.4399 9.23779H6.64694L8.79394 11.3838Z" fill="#525252"/>
</svg>
