<svg width="17" height="17" viewBox="0 0 17 17" fill="none" xmlns="http://www.w3.org/2000/svg">
<path fill-rule="evenodd" clip-rule="evenodd" d="M0.439452 8.73779C0.439452 6.61606 1.28231 4.58123 2.7826 3.08094C4.28289 1.58065 6.31772 0.737794 8.43945 0.737794C10.5612 0.737793 12.596 1.58065 14.0963 3.08094C15.5966 4.58123 16.4395 6.61606 16.4395 8.73779C16.4395 10.8595 15.5966 12.8944 14.0963 14.3946C12.596 15.8949 10.5612 16.7378 8.43945 16.7378C6.31772 16.7378 4.28289 15.8949 2.7826 14.3946C1.28231 12.8944 0.439453 10.8595 0.439452 8.73779ZM8.08545 6.09179C7.99157 5.99791 7.93882 5.87057 7.93882 5.73779C7.93882 5.60502 7.99157 5.47768 8.08545 5.38379C8.17934 5.28991 8.30668 5.23716 8.43945 5.23716C8.57223 5.23716 8.69957 5.28991 8.79345 5.38379L11.7935 8.38379C11.84 8.43024 11.877 8.48541 11.9022 8.54616C11.9274 8.60691 11.9403 8.67203 11.9403 8.73779C11.9403 8.80356 11.9274 8.86868 11.9022 8.92943C11.877 8.99017 11.84 9.04535 11.7935 9.09179L8.79345 12.0918C8.74697 12.1383 8.69178 12.1752 8.63104 12.2003C8.5703 12.2255 8.5052 12.2384 8.43945 12.2384C8.37371 12.2384 8.30861 12.2255 8.24787 12.2003C8.18713 12.1752 8.13194 12.1383 8.08545 12.0918C8.03896 12.0453 8.00209 11.9901 7.97693 11.9294C7.95177 11.8686 7.93882 11.8035 7.93882 11.7378C7.93882 11.672 7.95177 11.6069 7.97693 11.5462C8.00209 11.4855 8.03896 11.4303 8.08545 11.3838L10.2325 9.23779L5.43945 9.23779C5.30684 9.23779 5.17967 9.18512 5.0859 9.09135C4.99213 8.99758 4.93945 8.8704 4.93945 8.73779C4.93945 8.60519 4.99213 8.47801 5.0859 8.38424C5.17967 8.29047 5.30684 8.23779 5.43945 8.23779L10.2325 8.23779L8.08545 6.09179Z" fill="#525252"/>
</svg>
