<svg width="27" height="26" viewBox="0 0 27 26" fill="none" xmlns="http://www.w3.org/2000/svg">
<path d="M13.1301 0C5.95034 0 0.130127 5.82021 0.130127 13C0.130127 20.1798 5.95034 26 13.1301 26C20.3099 26 26.1301 20.1798 26.1301 13C26.1301 5.82021 20.3099 0 13.1301 0ZM9.94783 18.3882H7.31533V9.91656H9.94783V18.3882ZM8.61533 8.87656C7.78388 8.87656 7.24627 8.2875 7.24627 7.55896C7.24627 6.81552 7.80013 6.24406 8.64919 6.24406C9.49825 6.24406 10.0183 6.81552 10.0345 7.55896C10.0345 8.2875 9.49825 8.87656 8.61533 8.87656ZM19.5624 18.3882H16.9299V13.6933C16.9299 12.6005 16.548 11.8584 15.5961 11.8584C14.8689 11.8584 14.4369 12.3608 14.246 12.8443C14.1755 13.0163 14.1579 13.26 14.1579 13.5024V18.3869H11.5241V12.6181C11.5241 11.5605 11.4902 10.6762 11.455 9.91521H13.7422L13.8627 11.092H13.9155C14.2622 10.5395 15.1113 9.72427 16.5318 9.72427C18.2638 9.72427 19.5624 10.8848 19.5624 13.3792V18.3882Z" fill="#525252"/>
</svg>
