<svg width="29" height="22" viewBox="0 0 29 22" fill="none" xmlns="http://www.w3.org/2000/svg">
<path d="M0.00531006 3.72431L14.2698 10.8557L28.5342 3.72431C28.4814 2.8154 28.0831 1.96108 27.4209 1.3363C26.7586 0.711535 25.8826 0.363603 24.9721 0.36377H3.56741C2.65697 0.363603 1.78092 0.711535 1.11867 1.3363C0.456429 1.96108 0.0581157 2.8154 0.00531006 3.72431Z" fill="#525252"/>
<path d="M28.5396 7.70947L14.2698 14.8444L0 7.70947V18.2014C0 19.1475 0.375856 20.0549 1.04488 20.7239C1.71391 21.393 2.62131 21.7688 3.56745 21.7688H24.9722C25.9183 21.7688 26.8257 21.393 27.4947 20.7239C28.1638 20.0549 28.5396 19.1475 28.5396 18.2014V7.70947Z" fill="#525252"/>
</svg>
