<svg width="27" height="26" viewBox="0 0 27 26" fill="none" xmlns="http://www.w3.org/2000/svg">
<path d="M13.1301 0C5.95111 0 0.130127 5.82098 0.130127 13C0.130127 20.179 5.95111 26 13.1301 26C20.3091 26 26.1301 20.179 26.1301 13C26.1301 5.82098 20.3091 0 13.1301 0ZM19.3777 9.79933C19.3864 9.93571 19.3864 10.0779 19.3864 10.2172C19.3864 14.477 16.1422 19.3839 10.2138 19.3839C8.38571 19.3839 6.69106 18.8529 5.26339 17.9388C5.52455 17.9679 5.7741 17.9795 6.04106 17.9795C7.54999 17.9795 8.93705 17.4688 10.0426 16.604C8.62656 16.575 7.43682 15.6464 7.03057 14.3696C7.52678 14.4422 7.97365 14.4422 8.48437 14.3116C7.75523 14.1635 7.09985 13.7675 6.62959 13.1909C6.15933 12.6143 5.90319 11.8927 5.90468 11.1487V11.108C6.33124 11.3489 6.83325 11.4969 7.35848 11.5172C6.91695 11.2229 6.55485 10.8243 6.30429 10.3566C6.05373 9.88885 5.92245 9.36654 5.92209 8.83594C5.92209 8.23527 6.07879 7.68683 6.36026 7.21094C7.16958 8.20723 8.17948 9.02206 9.32433 9.60249C10.4692 10.1829 11.7234 10.5159 13.0054 10.5799C12.5498 8.38906 14.1864 6.61607 16.1538 6.61607C17.0824 6.61607 17.9181 7.00491 18.5071 7.6317C19.2355 7.49531 19.9319 7.22254 20.5529 6.85692C20.312 7.60268 19.8071 8.23237 19.1368 8.62991C19.7868 8.56027 20.4136 8.38036 20.994 8.1279C20.5558 8.7721 20.0074 9.34375 19.3777 9.79933Z" fill="#525252"/>
</svg>
