<svg width="27" height="26" viewBox="0 0 27 26" fill="none" xmlns="http://www.w3.org/2000/svg">
<path d="M26.0476 7.56572C26.0333 6.48944 25.8318 5.42386 25.4522 4.41665C25.123 3.56707 24.6202 2.7955 23.976 2.15124C23.3317 1.50698 22.5601 1.00419 21.7105 0.675003C20.7163 0.301772 19.6659 0.0999591 18.6041 0.0781583C17.2371 0.0170528 16.8036 0 13.3334 0C9.86318 0 9.41839 9.52894e-08 8.06128 0.0781583C6.99997 0.100119 5.95008 0.30193 4.95626 0.675003C4.10655 1.00396 3.33486 1.50667 2.69057 2.15096C2.04628 2.79525 1.54357 3.56694 1.21461 4.41665C0.840636 5.41016 0.639261 6.46029 0.619191 7.52166C0.558086 8.89014 0.539612 9.32357 0.539612 12.7938C0.539612 16.264 0.539612 16.7074 0.619191 18.0659C0.640507 19.1289 0.840876 20.1776 1.21461 21.1738C1.54413 22.0232 2.04721 22.7946 2.69171 23.4386C3.33622 24.0826 4.10798 24.5851 4.95768 24.914C5.94878 25.3022 6.99885 25.5185 8.0627 25.5535C9.43118 25.6146 9.8646 25.6331 13.3348 25.6331C16.8051 25.6331 17.2498 25.6331 18.607 25.5535C19.6687 25.5326 20.7192 25.3312 21.7134 24.9581C22.5627 24.6285 23.3341 24.1256 23.9783 23.4813C24.6225 22.8371 25.1255 22.0658 25.455 21.2164C25.8288 20.2217 26.0291 19.1729 26.0505 18.1086C26.1116 16.7415 26.13 16.3081 26.13 12.8364C26.1272 9.3662 26.1272 8.92567 26.0476 7.56572ZM13.3249 19.3562C9.69549 19.3562 6.75532 16.4161 6.75532 12.7867C6.75532 9.1573 9.69549 6.21713 13.3249 6.21713C15.0672 6.21713 16.7382 6.90928 17.9703 8.14131C19.2023 9.37334 19.8944 11.0443 19.8944 12.7867C19.8944 14.529 19.2023 16.2 17.9703 17.4321C16.7382 18.6641 15.0672 19.3562 13.3249 19.3562ZM20.1559 7.50603C19.3075 7.50603 18.624 6.82108 18.624 5.97413C18.624 5.77305 18.6636 5.57394 18.7406 5.38817C18.8175 5.2024 18.9303 5.0336 19.0725 4.89142C19.2147 4.74923 19.3835 4.63645 19.5692 4.5595C19.755 4.48255 19.9541 4.44294 20.1552 4.44294C20.3563 4.44294 20.5554 4.48255 20.7412 4.5595C20.9269 4.63645 21.0957 4.74923 21.2379 4.89142C21.3801 5.0336 21.4929 5.2024 21.5698 5.38817C21.6468 5.57394 21.6864 5.77305 21.6864 5.97413C21.6864 6.82108 21.0014 7.50603 20.1559 7.50603Z" fill="#525252"/>
<path d="M13.3334 17.0612C15.6903 17.0612 17.6009 15.1506 17.6009 12.7938C17.6009 10.437 15.6903 8.52637 13.3334 8.52637C10.9766 8.52637 9.06598 10.437 9.06598 12.7938C9.06598 15.1506 10.9766 17.0612 13.3334 17.0612Z" fill="#525252"/>
</svg>
