<svg width="88" height="15" viewBox="0 0 88 15" fill="none" xmlns="http://www.w3.org/2000/svg">
<path d="M3.61065 14.9435C3.22465 15.1415 2.78665 14.7945 2.86465 14.3515L3.69465 9.6215L0.171653 6.2655C-0.157347 5.9515 0.0136534 5.3775 0.454653 5.3155L5.35265 4.6195L7.53665 0.2925C7.73365 -0.0975 8.26665 -0.0975 8.46365 0.2925L10.6477 4.6195L15.5457 5.3155C15.9867 5.3775 16.1577 5.9515 15.8287 6.2655L12.3057 9.6215L13.1357 14.3515C13.2137 14.7945 12.7757 15.1415 12.3897 14.9435L7.99865 12.6875L3.60965 14.9435H3.61065Z" fill="#E9C546"/>
<path d="M21.6107 14.9435C21.2247 15.1415 20.7867 14.7945 20.8647 14.3515L21.6947 9.6215L18.1717 6.2655C17.8427 5.9515 18.0137 5.3775 18.4547 5.3155L23.3527 4.6195L25.5367 0.2925C25.7337 -0.0975 26.2667 -0.0975 26.4637 0.2925L28.6477 4.6195L33.5457 5.3155C33.9867 5.3775 34.1577 5.9515 33.8287 6.2655L30.3057 9.6215L31.1357 14.3515C31.2137 14.7945 30.7757 15.1415 30.3897 14.9435L25.9987 12.6875L21.6097 14.9435H21.6107Z" fill="#E9C546"/>
<path d="M39.6107 14.9435C39.2247 15.1415 38.7867 14.7945 38.8647 14.3515L39.6947 9.6215L36.1717 6.2655C35.8427 5.9515 36.0137 5.3775 36.4547 5.3155L41.3527 4.6195L43.5367 0.2925C43.7337 -0.0975 44.2667 -0.0975 44.4637 0.2925L46.6477 4.6195L51.5457 5.3155C51.9867 5.3775 52.1577 5.9515 51.8287 6.2655L48.3057 9.6215L49.1357 14.3515C49.2137 14.7945 48.7757 15.1415 48.3897 14.9435L43.9987 12.6875L39.6097 14.9435H39.6107Z" fill="#E9C546"/>
<path d="M57.6107 14.9435C57.2247 15.1415 56.7867 14.7945 56.8647 14.3515L57.6947 9.6215L54.1717 6.2655C53.8427 5.9515 54.0137 5.3775 54.4547 5.3155L59.3527 4.6195L61.5367 0.2925C61.7337 -0.0975 62.2667 -0.0975 62.4637 0.2925L64.6477 4.6195L69.5457 5.3155C69.9867 5.3775 70.1577 5.9515 69.8287 6.2655L66.3057 9.6215L67.1357 14.3515C67.2137 14.7945 66.7757 15.1415 66.3897 14.9435L61.9987 12.6875L57.6097 14.9435H57.6107Z" fill="#E9C546"/>
<path d="M75.6107 14.9435C75.2247 15.1415 74.7867 14.7945 74.8647 14.3515L75.6947 9.6215L72.1717 6.2655C71.8427 5.9515 72.0137 5.3775 72.4547 5.3155L77.3527 4.6195L79.5367 0.2925C79.7337 -0.0975 80.2667 -0.0975 80.4637 0.2925L82.6477 4.6195L87.5457 5.3155C87.9867 5.3775 88.1577 5.9515 87.8287 6.2655L84.3057 9.6215L85.1357 14.3515C85.2137 14.7945 84.7757 15.1415 84.3897 14.9435L79.9987 12.6875L75.6097 14.9435H75.6107Z" fill="#E9C546"/>
</svg>
