<svg width="49" height="54" viewBox="0 0 49 54" fill="none" xmlns="http://www.w3.org/2000/svg">
<path fill-rule="evenodd" clip-rule="evenodd" d="M24.9377 0.0488281L29.7291 3.58204H35.6477L37.4746 9.29377L42.266 12.827L40.4356 18.5456L42.266 24.2608L37.4746 27.7906L35.6477 33.5057H29.7291L24.9377 37.039L20.1464 33.5057H14.2347L12.4112 27.7906L7.62329 24.2608L9.44677 18.5456L7.62329 12.827L12.4112 9.29377L14.2347 3.58204H20.1464L24.9377 0.0488281Z" fill="#6241BB"/>
<path fill-rule="evenodd" clip-rule="evenodd" d="M11.2083 53.5778L7.62334 44.3328L0.784424 49.8446L7.63713 31.0721L9.96388 36.5081L17.9507 36.5563L11.2083 53.5778Z" fill="#6241BB"/>
<path fill-rule="evenodd" clip-rule="evenodd" d="M38.488 53.5054L42.1935 44.3328L48.9083 49.7722L42.1797 31.0721L39.853 36.5081L31.8662 36.5563L38.488 53.5054Z" fill="#6241BB"/>
<path d="M21.8074 16.7385H20.7656V13.7344H19.8241V12.8825H22.7464V13.7344H21.8074V16.7385ZM26.9057 14.8053C26.9057 15.4541 26.7466 15.9473 26.4283 16.2849C26.11 16.6225 25.6441 16.7913 25.0304 16.7913C24.4256 16.7913 23.9614 16.6216 23.6378 16.2822C23.3161 15.9429 23.1552 15.4488 23.1552 14.8C23.1552 14.1582 23.3152 13.6685 23.6352 13.3309C23.957 12.9915 24.4238 12.8219 25.0357 12.8219C25.6494 12.8219 26.1144 12.9898 26.4309 13.3256C26.7474 13.6615 26.9057 14.1547 26.9057 14.8053ZM24.2524 14.8053C24.2524 15.5508 24.5117 15.9235 25.0304 15.9235C25.2942 15.9235 25.4894 15.833 25.616 15.6519C25.7443 15.4708 25.8085 15.1886 25.8085 14.8053C25.8085 14.4202 25.7434 14.1362 25.6133 13.9533C25.485 13.7687 25.2924 13.6764 25.0357 13.6764C24.5135 13.6764 24.2524 14.0527 24.2524 14.8053ZM30.4003 14.109C30.4003 14.5397 30.2729 14.8729 30.0179 15.1086C29.7647 15.3424 29.4043 15.4593 28.9365 15.4593H28.6438V16.7385H27.602V12.8825H28.9365C29.4236 12.8825 29.7893 12.9889 30.0337 13.2017C30.2781 13.4144 30.4003 13.7169 30.4003 14.109ZM28.6438 14.6101H28.8337C28.9902 14.6101 29.1141 14.5661 29.2056 14.4782C29.2988 14.3903 29.3453 14.269 29.3453 14.1142C29.3453 13.854 29.2012 13.7239 28.9128 13.7239H28.6438V14.6101ZM17.8037 21.5675C17.8037 21.8066 17.7431 22.0194 17.6218 22.2058C17.5004 22.3904 17.3255 22.5346 17.0969 22.6383C16.8683 22.7403 16.6002 22.7913 16.2925 22.7913C16.0358 22.7913 15.8204 22.7737 15.6463 22.7385C15.4722 22.7016 15.2911 22.6383 15.103 22.5486V21.6202C15.3017 21.7222 15.5083 21.8022 15.7228 21.8602C15.9373 21.9165 16.1342 21.9446 16.3136 21.9446C16.4683 21.9446 16.5817 21.9183 16.6538 21.8655C16.7259 21.811 16.7619 21.7416 16.7619 21.6572C16.7619 21.6044 16.747 21.5587 16.7171 21.52C16.689 21.4796 16.6424 21.4391 16.5773 21.3987C16.514 21.3582 16.3435 21.2756 16.0656 21.1508C15.8142 21.0365 15.6252 20.9257 15.4986 20.8184C15.3737 20.7112 15.2806 20.5881 15.219 20.4492C15.1592 20.3103 15.1293 20.1459 15.1293 19.956C15.1293 19.6008 15.2586 19.3239 15.5171 19.1252C15.7755 18.9265 16.1307 18.8271 16.5826 18.8271C16.9817 18.8271 17.3888 18.9195 17.8037 19.1041L17.4846 19.9085C17.1242 19.7432 16.8129 19.6606 16.5509 19.6606C16.4156 19.6606 16.3171 19.6843 16.2555 19.7318C16.194 19.7793 16.1632 19.8382 16.1632 19.9085C16.1632 19.9841 16.2019 20.0518 16.2793 20.1116C16.3584 20.1714 16.5712 20.2804 16.9176 20.4386C17.2499 20.5881 17.4802 20.749 17.6086 20.9213C17.7387 21.0919 17.8037 21.3073 17.8037 21.5675ZM20.6891 22.7385H18.3998V18.8825H20.6891V19.7186H19.4416V20.3252H20.5968V21.1613H19.4416V21.8893H20.6891V22.7385ZM21.3643 22.7385V18.8825H22.4061V21.8972H23.891V22.7385H21.3643ZM24.5082 22.7385V18.8825H25.55V21.8972H27.0349V22.7385H24.5082ZM29.9414 22.7385H27.6521V18.8825H29.9414V19.7186H28.6939V20.3252H29.8491V21.1613H28.6939V21.8893H29.9414V22.7385ZM31.6584 21.3354V22.7385H30.6166V18.8825H31.88C32.9279 18.8825 33.4519 19.2623 33.4519 20.0219C33.4519 20.4685 33.2339 20.814 32.7978 21.0585L33.9214 22.7385H32.7398L31.9222 21.3354H31.6584ZM31.6584 20.5521H31.8536C32.2176 20.5521 32.3995 20.3912 32.3995 20.0694C32.3995 19.8039 32.2211 19.6711 31.8641 19.6711H31.6584V20.5521ZM35.0766 21.3776H34.2062L34.0717 18.8825H35.2111L35.0766 21.3776ZM34.0823 22.3007C34.0823 22.1407 34.1297 22.0167 34.2247 21.9288C34.3196 21.8391 34.4577 21.7943 34.6388 21.7943C34.8181 21.7943 34.9535 21.8391 35.0449 21.9288C35.1381 22.0167 35.1847 22.1407 35.1847 22.3007C35.1847 22.459 35.1364 22.5829 35.0397 22.6726C34.9447 22.7605 34.8111 22.8045 34.6388 22.8045C34.4647 22.8045 34.3284 22.7605 34.23 22.6726C34.1315 22.5829 34.0823 22.459 34.0823 22.3007Z" fill="white"/>
</svg>
