<svg width="109" height="48" viewBox="0 0 109 48" fill="none" xmlns="http://www.w3.org/2000/svg">
<path d="M27.8474 9.16617H38.5451V11.1607H34.333V22.4045H32.0243V11.1607H27.8298L27.8474 9.16617ZM38.0868 12.82H40.0607V14.6733H40.096C40.1721 14.3998 40.2975 14.1426 40.466 13.9143C40.6462 13.6572 40.8663 13.4308 41.1181 13.2436C41.3699 13.0318 41.656 12.8646 41.9641 12.7493C42.2598 12.6244 42.5771 12.5584 42.8981 12.5552C43.1449 12.5552 43.3211 12.5728 43.4092 12.5728C43.5019 12.5933 43.5963 12.6051 43.6912 12.6081V14.638C43.5402 14.6046 43.3871 14.581 43.233 14.5674C43.081 14.5469 42.9281 14.5351 42.7748 14.5321C42.4287 14.5308 42.0863 14.603 41.7702 14.7439C41.4549 14.891 41.173 15.1013 40.9419 15.3617C40.6955 15.6673 40.5046 16.0138 40.3779 16.3855C40.2297 16.8412 40.1582 17.3184 40.1664 17.7976V22.3516H38.0516L38.0868 12.82ZM53.3843 22.4045H51.3047V21.0719H51.2694C50.9997 21.5627 50.5964 21.9667 50.1063 22.2368C49.6326 22.5227 49.0907 22.6752 48.5377 22.6781C47.2865 22.6781 46.37 22.378 45.8061 21.7426C45.2421 21.1072 44.9601 20.1716 44.9601 18.9184V12.8288H47.075V18.7066C47.075 19.5539 47.2336 20.154 47.5684 20.4894C47.9033 20.8247 48.3439 21.0189 48.9255 21.0189C49.3066 21.0307 49.6857 20.9584 50.0358 20.8071C50.3168 20.6852 50.5646 20.4975 50.7583 20.2599C50.952 20.0161 51.0903 19.733 51.1637 19.4303C51.2512 19.0903 51.2927 18.74 51.2871 18.3889V12.8288H53.4019V22.4133L53.3843 22.4045ZM56.9795 19.3332C57.05 19.951 57.2791 20.3746 57.6845 20.6394C58.1285 20.8959 58.6348 21.0242 59.1473 21.0101C59.3714 21.008 59.5952 20.9903 59.817 20.9571C60.0583 20.9276 60.2951 20.8683 60.5219 20.7806C60.7363 20.7041 60.9254 20.5697 61.0682 20.3923C61.2155 20.2083 61.285 19.9739 61.2621 19.7392C61.2592 19.6131 61.2311 19.4888 61.1797 19.3736C61.1283 19.2585 61.0544 19.1547 60.9625 19.0685C60.7525 18.8892 60.5143 18.7461 60.2576 18.6448C59.9365 18.5291 59.6064 18.4406 59.2706 18.3801C58.9005 18.3095 58.5304 18.2212 58.1427 18.1329C57.755 18.0447 57.3673 17.9388 56.9972 17.8152C56.6415 17.702 56.3078 17.5289 56.0102 17.3033C55.7182 17.0931 55.4822 16.8143 55.3229 16.4914C55.135 16.1138 55.0441 15.6951 55.0585 15.2735C55.0383 14.8069 55.1748 14.347 55.4463 13.9673C55.6999 13.6138 56.0316 13.3239 56.4156 13.12C56.8235 12.8993 57.2636 12.7444 57.7197 12.6611C58.1674 12.5786 58.6216 12.5372 59.0768 12.5375C59.5513 12.5351 60.0245 12.5884 60.4867 12.6964C60.9203 12.7897 61.3327 12.9633 61.7027 13.2083C62.0694 13.4402 62.3772 13.7544 62.6015 14.1261C62.8557 14.5383 63.0124 15.0032 63.0597 15.4853H60.8568C60.751 14.9734 60.5219 14.638 60.1694 14.4615C59.7779 14.2791 59.3499 14.1885 58.9181 14.1967C58.7772 14.1967 58.5833 14.2144 58.3894 14.232C58.1915 14.2603 57.9967 14.3076 57.8078 14.3733C57.6366 14.4416 57.4808 14.5436 57.3496 14.6733C57.2849 14.7414 57.2344 14.8218 57.2011 14.9097C57.1679 14.9976 57.1524 15.0913 57.1558 15.1852C57.1508 15.3014 57.172 15.4173 57.2178 15.5242C57.2635 15.6312 57.3327 15.7264 57.4201 15.803C57.6303 15.9776 57.8687 16.1149 58.1251 16.209C58.4461 16.3247 58.7762 16.4132 59.112 16.4737C59.4821 16.5443 59.8698 16.6326 60.2576 16.7209C60.6453 16.8091 61.0154 16.915 61.3855 17.0386C61.7427 17.148 62.0771 17.3214 62.3724 17.5505C62.6606 17.7626 62.9008 18.0333 63.0774 18.3448C63.2634 18.7104 63.3543 19.1172 63.3417 19.5274C63.3587 20.0377 63.2237 20.5415 62.954 20.9748C62.6922 21.3665 62.3497 21.6975 61.9494 21.9456C61.521 22.1955 61.0576 22.3799 60.5748 22.4928C60.0828 22.6027 59.5808 22.6618 59.0768 22.6693C58.5117 22.674 57.9486 22.6028 57.4025 22.4575C56.9236 22.331 56.4703 22.122 56.0631 21.8397C55.6925 21.5659 55.3907 21.2093 55.1819 20.7983C54.9539 20.3371 54.8334 19.8301 54.8294 19.3156H56.9619V19.3332H56.9795ZM63.9409 12.82H65.5447V9.92517H67.6595V12.8023H69.5629V14.3733H67.6595V19.4921C67.6609 19.6867 67.6726 19.8812 67.6948 20.0746C67.712 20.2161 67.7537 20.3534 67.8182 20.4805C67.8923 20.59 67.9963 20.6757 68.1178 20.7277C68.2988 20.7913 68.4899 20.8212 68.6817 20.8159C68.8288 20.8188 68.9759 20.813 69.1223 20.7983C69.2704 20.7834 69.4175 20.7598 69.5629 20.7277V22.3692C69.3338 22.4045 69.1047 22.4222 68.8756 22.4398C68.6478 22.4696 68.4179 22.4814 68.1883 22.4751C67.7364 22.489 67.285 22.4355 66.8488 22.3163C66.5515 22.2294 66.2794 22.072 66.0558 21.8573C65.862 21.6429 65.7283 21.3811 65.6681 21.0983C65.5958 20.7497 65.5545 20.3952 65.5447 20.0393V14.3909H63.9409V12.82ZM71.0433 12.82H73.0348V14.1261H73.07C73.3345 13.5983 73.7692 13.1753 74.3037 12.9259C74.8446 12.6748 75.4347 12.5481 76.0308 12.5552C76.7115 12.5336 77.3876 12.6727 78.0047 12.9612C78.5503 13.2078 79.0281 13.5833 79.397 14.0555C79.7793 14.5355 80.0611 15.0878 80.2253 15.6794C80.5889 16.9346 80.6011 18.2657 80.2605 19.5274C80.1019 20.1024 79.8456 20.6458 79.5027 21.1336C79.1645 21.5981 78.7244 21.9785 78.2162 22.2457C77.6503 22.5383 77.02 22.684 76.3833 22.6693C76.0759 22.6662 75.7693 22.6366 75.4669 22.581C75.1637 22.5279 74.868 22.439 74.5857 22.3163C74.3056 22.1957 74.0444 22.0352 73.8102 21.8397C73.5743 21.6514 73.3717 21.4246 73.211 21.1689H73.1758V25.9524H71.0609V12.82H71.0433ZM78.4277 17.6211C78.4309 17.1969 78.3716 16.7746 78.2514 16.3678C78.15 15.98 77.9766 15.6147 77.7403 15.2911C77.5178 14.9851 77.2361 14.7269 76.912 14.5321C76.562 14.3378 76.1666 14.2403 75.7665 14.2497C74.8853 14.2497 74.2156 14.5498 73.7574 15.1676C73.2992 15.7853 73.0877 16.6149 73.0877 17.6387C73.0796 18.0922 73.139 18.5443 73.2639 18.9802C73.3678 19.365 73.5476 19.7251 73.7926 20.0393C74.0191 20.3342 74.308 20.5753 74.6386 20.7453C74.9924 20.9277 75.3862 21.0187 75.7841 21.0101C76.2091 21.0224 76.6295 20.9186 77.0001 20.71C77.3239 20.5147 77.6055 20.2567 77.8285 19.951C78.0479 19.6244 78.2034 19.259 78.2867 18.8743C78.3771 18.4626 78.4243 18.0426 78.4277 17.6211ZM82.1463 9.16617H84.2611V11.1607H82.1463V9.16617ZM82.1463 12.82H84.2611V22.4045H82.1463V12.82ZM86.1469 9.16617H88.2617V22.4045H86.1469V9.16617ZM94.712 22.6693C94.011 22.6838 93.3147 22.5515 92.6677 22.281C92.0982 22.0385 91.5829 21.6844 91.152 21.2395C90.7333 20.7745 90.4152 20.2276 90.218 19.6333C89.9956 18.9797 89.8825 18.2939 89.8831 17.6034C89.8737 16.918 89.9871 16.2365 90.218 15.5912C90.4193 14.9988 90.7369 14.4526 91.152 13.9849C91.5749 13.5307 92.0924 13.1752 92.6677 12.9435C93.3172 12.6813 94.0118 12.5493 94.712 12.5552C95.413 12.5407 96.1094 12.673 96.7564 12.9435C97.3294 13.1796 97.8459 13.5345 98.272 13.9849C98.6908 14.45 99.0088 14.9969 99.2061 15.5912C99.4285 16.2387 99.5416 16.9187 99.541 17.6034C99.5518 18.2947 99.4383 18.9822 99.2061 19.6333C98.9978 20.2225 98.681 20.7674 98.272 21.2395C97.8492 21.6938 97.3317 22.0493 96.7564 22.281C96.1074 22.5448 95.4124 22.6768 94.712 22.6693ZM94.712 20.9924C95.1366 21.0002 95.5557 20.8968 95.9281 20.6924C96.2653 20.5012 96.5546 20.2356 96.774 19.9157C97.0015 19.5893 97.1686 19.2246 97.2675 18.839C97.479 18.0349 97.479 17.1896 97.2675 16.3855C97.1721 15.9987 97.0047 15.6334 96.774 15.3088C96.5495 14.9981 96.261 14.7393 95.9281 14.5498C95.5549 14.3475 95.1363 14.2442 94.712 14.2497C94.2875 14.2419 93.8683 14.3454 93.496 14.5498C93.1634 14.7398 92.8751 14.9985 92.6501 15.3088C92.4194 15.6334 92.2519 15.9987 92.1566 16.3855C91.9451 17.1896 91.9451 18.0349 92.1566 18.839C92.2519 19.2258 92.4194 19.5911 92.6501 19.9157C92.874 20.2316 93.1623 20.4963 93.496 20.6924C93.866 20.9027 94.2868 21.0065 94.712 20.9924ZM100.175 12.82H101.779V9.92517H103.894V12.8023H105.797V14.3733H103.894V19.4921C103.895 19.6867 103.907 19.8812 103.929 20.0746C103.946 20.2161 103.988 20.3534 104.053 20.4805C104.127 20.59 104.231 20.6757 104.352 20.7277C104.533 20.7913 104.724 20.8212 104.916 20.8159C105.063 20.8188 105.21 20.813 105.357 20.7983C105.505 20.7834 105.652 20.7598 105.797 20.7277V22.3692C105.568 22.4045 105.339 22.4222 105.11 22.4398C104.882 22.4696 104.652 22.4814 104.423 22.4751C103.971 22.489 103.519 22.4355 103.083 22.3163C102.786 22.2294 102.514 22.072 102.29 21.8573C102.097 21.6429 101.963 21.3811 101.903 21.0983C101.83 20.7497 101.789 20.3952 101.779 20.0393V14.3909H100.175V12.82Z" fill="#1C1C1C"/>
<path d="M25.2898 9.19659H15.6279L12.6537 0L9.66185 9.19659L0 9.17897L7.81396 14.8696L4.82213 24.0662L12.6361 18.3756L20.45 24.075L17.4758 14.8784L25.2898 9.19659Z" fill="#00B67A"/>
<path d="M18.1115 17.0043L17.4524 14.9088L12.7001 18.4428L18.1115 17.0043Z" fill="#005128"/>
<rect y="26.9463" width="20.6515" height="20.3202" fill="#00AE73"/>
<rect x="22.0871" y="26.9463" width="20.6515" height="20.3202" fill="#00AE73"/>
<rect x="44.1743" y="26.9463" width="20.6515" height="20.3202" fill="#00AE73"/>
<rect x="66.2614" y="26.9463" width="20.6515" height="20.3202" fill="#00AE73"/>
<rect x="88.3485" y="26.9463" width="20.6515" height="20.3202" fill="#00AE73"/>
<path d="M10.2705 40.9078L13.6294 40.0535L15.0332 44.3951L10.2705 40.9078ZM18.001 35.2962H12.0878L10.2705 29.7072L8.45323 35.2962H2.54004L7.32586 38.7602L5.50855 44.3492L10.2944 40.8851L13.239 38.7602L18.001 35.2962Z" fill="white"/>
<path d="M32.3577 40.9078L35.7166 40.0535L37.1203 44.3951L32.3577 40.9078ZM40.0882 35.2962H34.175L32.3577 29.7072L30.5404 35.2962H24.6272L29.413 38.7602L27.5957 44.3492L32.3815 40.8851L35.3262 38.7602L40.0882 35.2962Z" fill="white"/>
<path d="M54.4448 40.9078L57.8037 40.0535L59.2074 44.3951L54.4448 40.9078ZM62.1753 35.2962H56.2621L54.4448 29.7072L52.6275 35.2962H46.7143L51.5001 38.7602L49.6828 44.3492L54.4686 40.8851L57.4133 38.7602L62.1753 35.2962Z" fill="white"/>
<path d="M76.5319 40.9078L79.8908 40.0535L81.2945 44.3951L76.5319 40.9078ZM84.2624 35.2962H78.3492L76.5319 29.7072L74.7146 35.2962H68.8014L73.5872 38.7602L71.7699 44.3492L76.5557 40.8851L79.5004 38.7602L84.2624 35.2962Z" fill="white"/>
<path d="M98.619 40.9078L101.978 40.0535L103.382 44.3951L98.619 40.9078ZM106.35 35.2962H100.436L98.619 29.7072L96.8017 35.2962H90.8885L95.6744 38.7602L93.8571 44.3492L98.6429 40.8851L101.588 38.7602L106.35 35.2962Z" fill="white"/>
</svg>
