<svg width="109" height="21" viewBox="0 0 109 21" fill="none" xmlns="http://www.w3.org/2000/svg">
<rect x="0.472046" y="0.80127" width="22.0248" height="19.5776" fill="#00AE73"/>
<rect x="23.7205" y="0.80127" width="19.5776" height="19.5776" fill="#00AE73"/>
<rect x="44.5217" y="0.80127" width="20.8012" height="19.5776" fill="#00AE73"/>
<rect x="66.5466" y="0.80127" width="19.5776" height="19.5776" fill="#00AE73"/>
<rect x="87.3478" y="0.80127" width="20.8012" height="19.5776" fill="#00AE73"/>
<path d="M11.4845 14.4454L14.6744 13.5914L16.0075 17.9316L11.4845 14.4454ZM18.8261 8.83559H13.2104L11.4845 3.24841L9.75858 8.83559H4.14285L8.68792 12.2986L6.96203 17.8857L11.5071 14.4228L14.3036 12.2986L18.8261 8.83559Z" fill="white"/>
<path d="M32.8975 14.4454L35.8216 13.5914L37.0436 17.9316L32.8975 14.4454ZM39.6273 8.83559H34.4796L32.8975 3.24841L31.3154 8.83559H26.1677L30.334 12.2986L28.7519 17.8857L32.9183 14.4228L35.4818 12.2986L39.6273 8.83559Z" fill="white"/>
<path d="M54.9223 14.4454L58.3781 13.5914L59.8223 17.9316L54.9223 14.4454ZM62.8758 8.83559H56.7921L54.9223 3.24841L53.0526 8.83559H46.9689L51.8928 12.2986L50.023 17.8857L54.9469 14.4228L57.9765 12.2986L62.8758 8.83559Z" fill="white"/>
<path d="M76.3354 14.4454L79.5253 13.5914L80.8584 17.9316L76.3354 14.4454ZM83.677 8.83559H78.0613L76.3354 3.24841L74.6095 8.83559H68.9938L73.5388 12.2986L71.813 17.8857L76.358 14.4228L79.1546 12.2986L83.677 8.83559Z" fill="white"/>
<path d="M98.3602 14.4454L101.55 13.5914L102.883 17.9316L98.3602 14.4454ZM105.702 8.83559H100.086L98.3602 3.24841L96.6343 8.83559H91.0186L95.5637 12.2986L93.8378 17.8857L98.3829 14.4228L101.179 12.2986L105.702 8.83559Z" fill="white"/>
</svg>
