<svg width="71" height="18" viewBox="0 0 71 18" fill="none" xmlns="http://www.w3.org/2000/svg">
<path d="M18.4784 6.08228H25.5769V7.40579H22.7819V14.8667H21.2499V7.40579H18.4667L18.4784 6.08228ZM25.2728 8.50677H26.5826V9.73658H26.606C26.6565 9.55511 26.7397 9.38442 26.8515 9.23294C26.9711 9.06234 27.1171 8.91207 27.2842 8.78787C27.4513 8.64731 27.6412 8.5364 27.8456 8.45992C28.0418 8.377 28.2524 8.33323 28.4654 8.33108C28.6291 8.33108 28.746 8.34279 28.8045 8.34279C28.866 8.35635 28.9287 8.36419 28.9916 8.36622V9.71316C28.8914 9.69095 28.7898 9.6753 28.6876 9.66631C28.5867 9.65268 28.4852 9.64486 28.3835 9.64288C28.1539 9.64198 27.9267 9.68989 27.7169 9.78343C27.5077 9.88105 27.3206 10.0206 27.1673 10.1934C27.0038 10.3961 26.8771 10.6261 26.7931 10.8727C26.6947 11.1751 26.6473 11.4917 26.6527 11.8097V14.8315H25.2494L25.2728 8.50677ZM35.4235 14.8667H34.0436V13.9824H34.0202C33.8412 14.3081 33.5736 14.5762 33.2484 14.7554C32.9341 14.9451 32.5745 15.0463 32.2076 15.0482C31.3773 15.0482 30.7692 14.8491 30.3949 14.4274C30.0207 14.0058 29.8336 13.385 29.8336 12.5534V8.51262H31.2369V12.4129C31.2369 12.9751 31.3422 13.3733 31.5644 13.5959C31.7866 13.8184 32.0789 13.9472 32.4648 13.9472C32.7177 13.9551 32.9693 13.9071 33.2016 13.8067C33.3881 13.7258 33.5525 13.6013 33.6811 13.4436C33.8095 13.2818 33.9013 13.094 33.95 12.8931C34.0081 12.6675 34.0356 12.435 34.0319 12.2021V8.51262H35.4352V14.8725L35.4235 14.8667ZM37.8092 12.8287C37.8559 13.2386 38.008 13.5197 38.2769 13.6954C38.5716 13.8656 38.9076 13.9507 39.2476 13.9414C39.3963 13.94 39.5448 13.9282 39.692 13.9062C39.8521 13.8867 40.0092 13.8473 40.1597 13.7891C40.302 13.7384 40.4275 13.6492 40.5223 13.5314C40.62 13.4093 40.6661 13.2538 40.6509 13.0981C40.6489 13.0144 40.6304 12.9319 40.5962 12.8555C40.5621 12.7791 40.5131 12.7102 40.4521 12.653C40.3127 12.5341 40.1547 12.4391 39.9843 12.3719C39.7713 12.2951 39.5522 12.2364 39.3294 12.1962C39.0839 12.1494 38.8383 12.0908 38.581 12.0322C38.3237 11.9737 38.0664 11.9034 37.8209 11.8214C37.5849 11.7463 37.3634 11.6314 37.166 11.4817C36.9722 11.3422 36.8156 11.1572 36.7099 10.943C36.5852 10.6924 36.5249 10.4146 36.5345 10.1348C36.5211 9.82521 36.6116 9.52005 36.7918 9.26808C36.96 9.03355 37.1802 8.84114 37.4349 8.70588C37.7056 8.5594 37.9977 8.45663 38.3003 8.40135C38.5974 8.3466 38.8988 8.31915 39.2008 8.31937C39.5157 8.31772 39.8297 8.3531 40.1363 8.42478C40.4241 8.48672 40.6977 8.60192 40.9433 8.76444C41.1866 8.9183 41.3908 9.12683 41.5397 9.37349C41.7083 9.64697 41.8123 9.95545 41.8437 10.2754H40.3819C40.3118 9.9357 40.1597 9.71316 39.9258 9.59603C39.666 9.47499 39.3821 9.4149 39.0955 9.42034C39.002 9.42034 38.8734 9.43206 38.7447 9.44377C38.6134 9.46252 38.4841 9.4939 38.3588 9.53747C38.2452 9.58281 38.1418 9.65051 38.0548 9.73658C38.0118 9.78177 37.9783 9.83509 37.9562 9.89342C37.9341 9.95175 37.9239 10.0139 37.9261 10.0762C37.9228 10.1534 37.9369 10.2303 37.9672 10.3012C37.9976 10.3722 38.0435 10.4354 38.1015 10.4862C38.241 10.602 38.3992 10.6931 38.5693 10.7556C38.7823 10.8323 39.0014 10.8911 39.2242 10.9313C39.4698 10.9781 39.727 11.0367 39.9843 11.0952C40.2416 11.1538 40.4872 11.2241 40.7328 11.3061C40.9698 11.3787 41.1917 11.4938 41.3876 11.6457C41.5789 11.7865 41.7383 11.9661 41.8554 12.1728C41.9789 12.4154 42.0392 12.6853 42.0308 12.9575C42.0421 13.2961 41.9525 13.6305 41.7736 13.918C41.5998 14.1779 41.3726 14.3975 41.107 14.5621C40.8227 14.728 40.5152 14.8503 40.1948 14.9252C39.8683 14.9982 39.5353 15.0374 39.2008 15.0424C38.8259 15.0455 38.4522 14.9982 38.0898 14.9018C37.772 14.8179 37.4713 14.6792 37.2011 14.4919C36.9551 14.3102 36.7549 14.0736 36.6163 13.8008C36.465 13.4948 36.3851 13.1584 36.3825 12.817H37.7975V12.8287H37.8092ZM42.4284 8.50677H43.4926V6.58591H44.896V8.49506H46.1589V9.53747H44.896V12.9341C44.8968 13.0633 44.9046 13.1923 44.9193 13.3206C44.9308 13.4145 44.9585 13.5057 45.0012 13.59C45.0504 13.6626 45.1194 13.7195 45.2 13.754C45.3201 13.7962 45.447 13.8161 45.5742 13.8125C45.6718 13.8145 45.7695 13.8106 45.8666 13.8008C45.9649 13.7909 46.0625 13.7753 46.1589 13.754V14.8432C46.0069 14.8667 45.8549 14.8784 45.7029 14.8901C45.5517 14.9099 45.3992 14.9177 45.2468 14.9135C44.947 14.9227 44.6474 14.8872 44.358 14.8081C44.1607 14.7505 43.9802 14.646 43.8318 14.5036C43.7032 14.3613 43.6145 14.1876 43.5745 13.9999C43.5265 13.7686 43.4991 13.5334 43.4926 13.2972V9.54918H42.4284V8.50677ZM47.1413 8.50677H48.4627V9.37349H48.4861C48.6616 9.02323 48.9501 8.74258 49.3047 8.57704C49.6636 8.41045 50.0552 8.32641 50.4508 8.33108C50.9024 8.31678 51.3511 8.40906 51.7606 8.60047C52.1226 8.76413 52.4396 9.01332 52.6844 9.32664C52.9381 9.64515 53.1251 10.0116 53.234 10.4042C53.4753 11.2371 53.4834 12.1204 53.2574 12.9575C53.1522 13.3391 52.9821 13.6997 52.7546 14.0234C52.5302 14.3315 52.2381 14.584 51.9009 14.7613C51.5254 14.9555 51.1072 15.0521 50.6847 15.0424C50.4807 15.0403 50.2772 15.0207 50.0766 14.9838C49.8754 14.9485 49.6791 14.8896 49.4918 14.8081C49.306 14.7281 49.1327 14.6216 48.9773 14.4919C48.8207 14.3669 48.6863 14.2165 48.5797 14.0468H48.5563V17.2209H47.153V8.50677H47.1413ZM52.0412 11.6926C52.0434 11.4111 52.004 11.1309 51.9243 10.861C51.857 10.6036 51.7419 10.3613 51.5851 10.1465C51.4375 9.94344 51.2506 9.77217 51.0355 9.64288C50.8032 9.51394 50.5409 9.44925 50.2754 9.45548C49.6906 9.45548 49.2463 9.6546 48.9422 10.0645C48.6382 10.4745 48.4978 11.025 48.4978 11.7043C48.4925 12.0052 48.5319 12.3052 48.6148 12.5944C48.6837 12.8498 48.803 13.0887 48.9656 13.2972C49.1159 13.4929 49.3076 13.6529 49.5269 13.7657C49.7617 13.8867 50.023 13.9471 50.2871 13.9414C50.5691 13.9495 50.848 13.8807 51.094 13.7423C51.3088 13.6127 51.4957 13.4415 51.6436 13.2386C51.7892 13.0219 51.8924 12.7795 51.9477 12.5242C52.0076 12.251 52.039 11.9723 52.0412 11.6926ZM54.5087 6.08228H55.9121V7.40579H54.5087V6.08228ZM54.5087 8.50677H55.9121V14.8667H54.5087V8.50677ZM57.1634 6.08228H58.5667V14.8667H57.1634V6.08228ZM62.8468 15.0424C62.3817 15.052 61.9196 14.9642 61.4903 14.7847C61.1124 14.6238 60.7704 14.3888 60.4846 14.0936C60.2067 13.785 59.9957 13.4221 59.8648 13.0278C59.7172 12.5941 59.6421 12.139 59.6426 11.6809C59.6363 11.2261 59.7116 10.7738 59.8648 10.3456C59.9984 9.95253 60.2091 9.59015 60.4846 9.27979C60.7652 8.9784 61.1085 8.74248 61.4903 8.58875C61.9213 8.41475 62.3822 8.3272 62.8468 8.33108C63.312 8.32147 63.774 8.40923 64.2034 8.58875C64.5836 8.74538 64.9263 8.9809 65.2091 9.27979C65.487 9.5884 65.698 9.9513 65.8289 10.3456C65.9764 10.7753 66.0515 11.2265 66.0511 11.6809C66.0583 12.1396 65.983 12.5958 65.8289 13.0278C65.6907 13.4188 65.4804 13.7803 65.2091 14.0936C64.9285 14.395 64.5851 14.631 64.2034 14.7847C63.7727 14.9597 63.3116 15.0473 62.8468 15.0424ZM62.8468 13.9297C63.1285 13.9348 63.4067 13.8662 63.6537 13.7306C63.8775 13.6037 64.0694 13.4274 64.2151 13.2152C64.366 12.9986 64.4769 12.7566 64.5425 12.5007C64.6829 11.9672 64.6829 11.4063 64.5425 10.8727C64.4792 10.616 64.3681 10.3736 64.2151 10.1582C64.0661 9.95208 63.8747 9.78033 63.6537 9.6546C63.4061 9.52036 63.1283 9.45182 62.8468 9.45548C62.5651 9.45033 62.287 9.51897 62.0399 9.6546C61.8192 9.78069 61.6279 9.95237 61.4786 10.1582C61.3255 10.3736 61.2144 10.616 61.1511 10.8727C61.0108 11.4063 61.0108 11.9672 61.1511 12.5007C61.2144 12.7574 61.3255 12.9998 61.4786 13.2152C61.6272 13.4248 61.8185 13.6005 62.0399 13.7306C62.2854 13.8701 62.5647 13.939 62.8468 13.9297ZM66.4721 8.50677H67.5363V6.58591H68.9396V8.49506H70.2026V9.53747H68.9396V12.9341C68.9405 13.0633 68.9483 13.1923 68.963 13.3206C68.9744 13.4145 69.0021 13.5057 69.0448 13.59C69.094 13.6626 69.1631 13.7195 69.2436 13.754C69.3638 13.7962 69.4906 13.8161 69.6179 13.8125C69.7155 13.8145 69.8131 13.8106 69.9102 13.8008C70.0085 13.7909 70.1061 13.7753 70.2026 13.754V14.8432C70.0506 14.8667 69.8985 14.8784 69.7465 14.8901C69.5953 14.9099 69.4428 14.9177 69.2904 14.9135C68.9906 14.9227 68.691 14.8872 68.4016 14.8081C68.2043 14.7505 68.0238 14.646 67.8754 14.5036C67.7468 14.3613 67.6581 14.1876 67.6181 13.9999C67.5702 13.7686 67.5428 13.5334 67.5363 13.2972V9.54918H66.4721V8.50677Z" fill="#1C1C1C"/>
<path d="M16.7812 6.10246H10.37L8.39644 0L6.41119 6.10246L0 6.09077L5.185 9.86681L3.19976 15.9693L8.38476 12.1932L13.5698 15.9751L11.5962 9.87265L16.7812 6.10246Z" fill="#00B67A"/>
<path d="M12.018 11.2833L11.5806 9.89282L8.42725 12.2378L12.018 11.2833Z" fill="#005128"/>
</svg>
