<svg width="126" height="16" viewBox="0 0 126 16" fill="none" xmlns="http://www.w3.org/2000/svg">
<path d="M15.6469 5.66748H21.6577V6.7882H19.291V13.1059H17.9938V6.7882H15.637L15.6469 5.66748ZM21.4002 7.72048H22.5093V8.76185H22.5291C22.5719 8.60818 22.6423 8.46365 22.737 8.33538C22.8382 8.19092 22.9619 8.06368 23.1034 7.9585C23.2449 7.83948 23.4057 7.74556 23.5788 7.6808C23.7449 7.61059 23.9232 7.57353 24.1036 7.57171C24.2422 7.57171 24.3412 7.58163 24.3908 7.58163C24.4428 7.59311 24.4959 7.59975 24.5492 7.60146V8.74202C24.4643 8.72321 24.3783 8.70996 24.2917 8.70234C24.2064 8.69081 24.1204 8.68418 24.0343 8.68251C23.8398 8.68175 23.6475 8.72231 23.4698 8.80152C23.2926 8.88418 23.1342 9.00232 23.0044 9.14865C22.866 9.32033 22.7587 9.51503 22.6875 9.72388C22.6042 9.97992 22.5641 10.2481 22.5687 10.5173V13.0761H21.3804L21.4002 7.72048ZM29.9956 13.1059H28.8271V12.3571H28.8073C28.6557 12.6329 28.4291 12.8599 28.1537 13.0117C27.8876 13.1723 27.5831 13.258 27.2724 13.2596C26.5693 13.2596 26.0544 13.091 25.7375 12.734C25.4206 12.3769 25.2622 11.8513 25.2622 11.1471V7.72544H26.4505V11.0281C26.4505 11.5041 26.5396 11.8413 26.7277 12.0298C26.9159 12.2182 27.1635 12.3273 27.4902 12.3273C27.7044 12.334 27.9174 12.2933 28.1141 12.2083C28.272 12.1398 28.4112 12.0344 28.5201 11.9009C28.6289 11.7639 28.7066 11.6048 28.7479 11.4347C28.797 11.2437 28.8203 11.0468 28.8172 10.8496V7.72544H30.0055V13.1108L29.9956 13.1059ZM32.0157 11.3802C32.0553 11.7273 32.184 11.9653 32.4118 12.1141C32.6613 12.2582 32.9458 12.3303 33.2337 12.3224C33.3596 12.3212 33.4854 12.3112 33.61 12.2926C33.7456 12.276 33.8786 12.2427 34.0061 12.1934C34.1265 12.1505 34.2328 12.0749 34.313 11.9752C34.3958 11.8718 34.4349 11.7401 34.422 11.6083C34.4203 11.5374 34.4046 11.4676 34.3757 11.4029C34.3468 11.3382 34.3053 11.2799 34.2536 11.2314C34.1356 11.1307 34.0018 11.0503 33.8575 10.9934C33.6772 10.9284 33.4917 10.8786 33.303 10.8446C33.095 10.8049 32.8871 10.7553 32.6692 10.7058C32.4514 10.6562 32.2335 10.5967 32.0256 10.5272C31.8258 10.4636 31.6382 10.3663 31.471 10.2396C31.307 10.1215 31.1744 9.96482 31.0848 9.78339C30.9793 9.5712 30.9282 9.33599 30.9363 9.09906C30.9249 8.8369 31.0016 8.57849 31.1542 8.36514C31.2966 8.16654 31.483 8.00361 31.6988 7.88908C31.928 7.76504 32.1753 7.67802 32.4316 7.63122C32.6831 7.58485 32.9383 7.56161 33.1941 7.56179C33.4607 7.5604 33.7266 7.59036 33.9863 7.65105C34.2299 7.7035 34.4616 7.80104 34.6695 7.93867C34.8756 8.06895 35.0485 8.24553 35.1746 8.4544C35.3174 8.68597 35.4055 8.94718 35.432 9.21807H34.1942C34.1348 8.93045 34.0061 8.74202 33.808 8.64284C33.588 8.54034 33.3475 8.48946 33.1049 8.49407C33.0257 8.49407 32.9168 8.50399 32.8079 8.5139C32.6967 8.52978 32.5872 8.55635 32.4811 8.59325C32.3849 8.63164 32.2973 8.68897 32.2236 8.76185C32.1873 8.80011 32.1589 8.84527 32.1402 8.89465C32.1215 8.94404 32.1128 8.99668 32.1147 9.04947C32.1119 9.11478 32.1238 9.17988 32.1495 9.23996C32.1752 9.30004 32.2141 9.35357 32.2632 9.39659C32.3813 9.49469 32.5153 9.57184 32.6593 9.6247C32.8397 9.6897 33.0252 9.73947 33.2139 9.77347C33.4218 9.81314 33.6397 9.86273 33.8575 9.91232C34.0754 9.96191 34.2833 10.0214 34.4913 10.0908C34.692 10.1523 34.8799 10.2498 35.0458 10.3785C35.2077 10.4977 35.3427 10.6497 35.4419 10.8248C35.5465 11.0302 35.5976 11.2588 35.5905 11.4893C35.6 11.776 35.5242 12.0591 35.3726 12.3025C35.2255 12.5226 35.0331 12.7086 34.8082 12.848C34.5674 12.9884 34.3071 13.092 34.0358 13.1555C33.7593 13.2172 33.4773 13.2504 33.1941 13.2546C32.8766 13.2573 32.5602 13.2173 32.2533 13.1356C31.9842 13.0646 31.7296 12.9471 31.5007 12.7885C31.2925 12.6347 31.1229 12.4343 31.0056 12.2033C30.8775 11.9442 30.8098 11.6594 30.8076 11.3702H32.0058V11.3802H32.0157ZM35.9272 7.72048H36.8283V6.09395H38.0166V7.71056H39.086V8.59325H38.0166V11.4694C38.0173 11.5788 38.0239 11.6881 38.0364 11.7967C38.046 11.8762 38.0695 11.9534 38.1057 12.0248C38.1474 12.0863 38.2058 12.1345 38.274 12.1637C38.3758 12.1994 38.4832 12.2162 38.5909 12.2133C38.6736 12.2149 38.7562 12.2116 38.8385 12.2033C38.9217 12.195 39.0044 12.1817 39.086 12.1637V13.086C38.9573 13.1059 38.8286 13.1158 38.6998 13.1257C38.5718 13.1425 38.4427 13.1491 38.3137 13.1455C38.0598 13.1534 37.8061 13.1233 37.5611 13.0563C37.394 13.0075 37.2411 12.919 37.1154 12.7984C37.0066 12.678 36.9314 12.5308 36.8976 12.3719C36.857 12.176 36.8338 11.9769 36.8283 11.7769V8.60317H35.9272V7.72048ZM39.9179 7.72048H41.0368V8.4544H41.0566C41.2052 8.1578 41.4495 7.92016 41.7498 7.77998C42.0537 7.63891 42.3853 7.56775 42.7203 7.57171C43.1027 7.5596 43.4826 7.63774 43.8293 7.79982C44.1359 7.93841 44.4044 8.14941 44.6116 8.41473C44.8265 8.68442 44.9848 8.99476 45.077 9.32717C45.2813 10.0324 45.2882 10.7804 45.0968 11.4893C45.0077 11.8124 44.8637 12.1177 44.671 12.3918C44.481 12.6527 44.2337 12.8665 43.9482 13.0166C43.6302 13.1811 43.2761 13.2629 42.9183 13.2546C42.7456 13.2529 42.5733 13.2363 42.4034 13.205C42.2331 13.1752 42.0669 13.1253 41.9083 13.0563C41.7509 12.9885 41.6041 12.8983 41.4725 12.7885C41.34 12.6827 41.2262 12.5553 41.1359 12.4116H41.1161V15.0994H39.9278V7.72048H39.9179ZM44.067 10.4181C44.0688 10.1798 44.0355 9.94251 43.968 9.71396C43.911 9.49605 43.8136 9.29082 43.6808 9.10898C43.5558 8.93701 43.3975 8.79198 43.2154 8.68251C43.0187 8.57332 42.7965 8.51855 42.5717 8.52382C42.0766 8.52382 41.7003 8.69243 41.4428 9.03955C41.1854 9.38668 41.0665 9.85282 41.0665 10.4281C41.062 10.6828 41.0954 10.9369 41.1656 11.1818C41.224 11.398 41.325 11.6004 41.4626 11.7769C41.5899 11.9426 41.7522 12.0781 41.938 12.1736C42.1368 12.2761 42.358 12.3272 42.5816 12.3224C42.8204 12.3293 43.0566 12.271 43.2649 12.1538C43.4468 12.044 43.605 11.899 43.7303 11.7273C43.8536 11.5438 43.941 11.3385 43.9878 11.1223C44.0386 10.891 44.0651 10.655 44.067 10.4181ZM46.1564 5.66748H47.3447V6.7882H46.1564V5.66748ZM46.1564 7.72048H47.3447V13.1059H46.1564V7.72048ZM48.4043 5.66748H49.5926V13.1059H48.4043V5.66748ZM53.2169 13.2546C52.823 13.2628 52.4318 13.1885 52.0682 13.0364C51.7482 12.9002 51.4587 12.7013 51.2166 12.4513C50.9813 12.19 50.8026 11.8827 50.6918 11.5488C50.5668 11.1815 50.5032 10.7962 50.5036 10.4082C50.4983 10.0231 50.5621 9.64016 50.6918 9.27758C50.8049 8.94471 50.9833 8.63786 51.2166 8.37505C51.4542 8.11984 51.7449 7.92007 52.0682 7.7899C52.4331 7.64256 52.8234 7.56843 53.2169 7.57171C53.6108 7.56357 54.002 7.63789 54.3656 7.7899C54.6875 7.92253 54.9778 8.12196 55.2172 8.37505C55.4525 8.63637 55.6312 8.94367 55.742 9.27758C55.867 9.64138 55.9306 10.0235 55.9302 10.4082C55.9362 10.7966 55.8725 11.183 55.742 11.5488C55.625 11.8798 55.447 12.186 55.2172 12.4513C54.9796 12.7065 54.6888 12.9063 54.3656 13.0364C54.0009 13.1847 53.6104 13.2588 53.2169 13.2546ZM53.2169 12.3124C53.4554 12.3168 53.691 12.2587 53.9002 12.1438C54.0896 12.0364 54.2522 11.8872 54.3755 11.7075C54.5033 11.524 54.5972 11.3191 54.6527 11.1025C54.7716 10.6506 54.7716 10.1757 54.6527 9.72388C54.5992 9.50654 54.5051 9.30128 54.3755 9.11889C54.2493 8.94432 54.0872 8.7989 53.9002 8.69243C53.6905 8.57876 53.4553 8.52072 53.2169 8.52382C52.9784 8.51946 52.7428 8.57758 52.5336 8.69243C52.3468 8.7992 52.1847 8.94457 52.0583 9.11889C51.9287 9.30128 51.8346 9.50654 51.781 9.72388C51.6622 10.1757 51.6622 10.6506 51.781 11.1025C51.8346 11.3198 51.9287 11.5251 52.0583 11.7075C52.1841 11.885 52.3461 12.0337 52.5336 12.1438C52.7415 12.262 52.978 12.3204 53.2169 12.3124ZM56.2867 7.72048H57.1878V6.09395H58.3761V7.71056H59.4456V8.59325H58.3761V11.4694C58.3768 11.5788 58.3834 11.6881 58.3959 11.7967C58.4056 11.8762 58.429 11.9534 58.4652 12.0248C58.5069 12.0863 58.5653 12.1345 58.6335 12.1637C58.7353 12.1994 58.8427 12.2162 58.9504 12.2133C59.0331 12.2149 59.1157 12.2116 59.198 12.2033C59.2812 12.195 59.3639 12.1817 59.4456 12.1637V13.086C59.3168 13.1059 59.1881 13.1158 59.0594 13.1257C58.9313 13.1425 58.8022 13.1491 58.6732 13.1455C58.4193 13.1534 58.1656 13.1233 57.9206 13.0563C57.7535 13.0075 57.6006 12.919 57.475 12.7984C57.3661 12.678 57.291 12.5308 57.2571 12.3719C57.2165 12.176 57.1933 11.9769 57.1878 11.7769V8.60317H56.2867V7.72048Z" fill="#4A4A4A"/>
<path d="M14.2099 5.68449H8.78105L7.10988 0.51709L5.42882 5.68449L0 5.67459L4.39052 8.87204L2.70947 14.0394L7.09999 10.842L11.4905 14.0444L9.81935 8.87699L14.2099 5.68449Z" fill="#00B67A"/>
<path d="M10.1765 10.0715L9.8062 8.89404L7.13599 10.8797L10.1765 10.0715Z" fill="#005128"/>
<rect x="63.8958" y="3.77734" width="11.6037" height="11.4175" fill="#00AE73"/>
<rect x="76.3062" y="3.7771" width="11.6037" height="11.4175" fill="#00AE73"/>
<rect x="88.7164" y="3.7771" width="11.6037" height="11.4175" fill="#00AE73"/>
<rect x="101.127" y="3.7771" width="11.6037" height="11.4175" fill="#00AE73"/>
<rect x="113.537" y="3.7771" width="11.6037" height="11.4175" fill="#00AE73"/>
<path d="M69.6666 11.6218L71.5539 11.1418L72.3427 13.5813L69.6666 11.6218ZM74.0103 8.46871H70.6877L69.6666 5.32837L68.6455 8.46871H65.323L68.0121 10.4151L66.991 13.5555L69.68 11.6091L71.3346 10.4151L74.0103 8.46871Z" fill="white"/>
<path d="M82.077 11.6218L83.9643 11.1418L84.7531 13.5813L82.077 11.6218ZM86.4207 8.46871H83.0981L82.077 5.32837L81.0559 8.46871H77.7334L80.4225 10.4151L79.4014 13.5555L82.0904 11.6091L83.745 10.4151L86.4207 8.46871Z" fill="white"/>
<path d="M94.4873 11.6218L96.3746 11.1418L97.1633 13.5813L94.4873 11.6218ZM98.8309 8.46871H95.5084L94.4873 5.32837L93.4662 8.46871H90.1437L92.8327 10.4151L91.8116 13.5555L94.5007 11.6091L96.1553 10.4151L98.8309 8.46871Z" fill="white"/>
<path d="M106.898 11.6218L108.785 11.1418L109.574 13.5813L106.898 11.6218ZM111.241 8.46871H107.919L106.898 5.32837L105.877 8.46871H102.554L105.243 10.4151L104.222 13.5555L106.911 11.6091L108.566 10.4151L111.241 8.46871Z" fill="white"/>
<path d="M119.308 11.6218L121.195 11.1418L121.984 13.5813L119.308 11.6218ZM123.652 8.46871H120.329L119.308 5.32837L118.287 8.46871H114.964L117.653 10.4151L116.632 13.5555L119.321 11.6091L120.976 10.4151L123.652 8.46871Z" fill="white"/>
</svg>
