<svg width="34" height="35" viewBox="0 0 34 35" fill="none" xmlns="http://www.w3.org/2000/svg">
<path d="M17 0.739258C26.2299 0.739258 33.7511 8.24371 33.7511 17.4903C33.7511 26.7201 26.2299 34.2413 17 34.2413C7.75348 34.2413 0.249023 26.7201 0.249023 17.4903C0.249023 8.24371 7.75348 0.739258 17 0.739258ZM12.0752 14.1903C11.5895 13.6878 10.7854 13.6878 10.2996 14.1736C9.7971 14.6761 9.7971 15.4634 10.2996 15.9492L16.1122 21.7953C16.3468 22.0298 16.665 22.1638 17 22.1638C17.3351 22.1638 17.6533 22.0298 17.8878 21.7953L23.7004 15.9492C23.9517 15.7147 24.069 15.3964 24.069 15.0781C24.069 14.7431 23.9517 14.4248 23.7004 14.1736C23.1979 13.6878 22.4106 13.6878 21.9248 14.1903L17 19.1319L12.0752 14.1903Z" fill="#F79E1B"/>
</svg>
